<?xml version="1.0" encoding="UTF-8" standalone="no"?>
<!-- Created with Inkscape (http://www.inkscape.org/) -->

<svg
   version="1.1"
   id="svg1"
   width="8000"
   height="2666.6667"
   viewBox="0 0 8000 2666.6667"
   sodipodi:docname="vecteezy_data-management-icon-logo-vector-illustration-document_9317635.eps"
   xmlns:inkscape="http://www.inkscape.org/namespaces/inkscape"
   xmlns:sodipodi="http://sodipodi.sourceforge.net/DTD/sodipodi-0.dtd"
   xmlns="http://www.w3.org/2000/svg"
   xmlns:svg="http://www.w3.org/2000/svg">
  <defs
     id="defs1" />
  <sodipodi:namedview
     id="namedview1"
     pagecolor="#ffffff"
     bordercolor="#000000"
     borderopacity="0.25"
     inkscape:showpageshadow="2"
     inkscape:pageopacity="0.0"
     inkscape:pagecheckerboard="0"
     inkscape:deskcolor="#d1d1d1">
    <inkscape:page
       x="0"
       y="0"
       inkscape:label="1"
       id="page1"
       width="8000"
       height="2666.6667"
       margin="0"
       bleed="0" />
  </sodipodi:namedview>
  <g
     id="g1"
     inkscape:groupmode="layer"
     inkscape:label="1">
    <g
       id="group-R5">
      <path
         id="path2"
         d="M 60000,0 H 0 V 20000 H 60000 V 0"
         style="fill:#ffffff;fill-opacity:1;fill-rule:nonzero;stroke:none"
         transform="matrix(0.13333333,0,0,-0.13333333,0,2666.6667)" />
      <path
         id="path3"
         d="m 12634.8,10289.6 -454.5,-38.1 c -54.7,-4.6 -100.5,-43.1 -114.5,-96.1 -8,-30.6 -17.3,-60.6 -26.4,-90.7 -76.3,42.5 -162.7,66 -252.3,66 h -605.6 c 92.2,224.4 140.5,466.7 140.5,711.4 0,491.1 -188.7,954.8 -531.4,1305.8 -354.6,364.1 -830.02,564.6 -1338.65,564.6 -508.47,0 -983.99,-200.5 -1338.93,-564.5 -342.7,-351.4 -531.45,-815.2 -531.45,-1305.9 0,-244.7 48.31,-487 140.5,-711.4 h -184.33 c -91.2,0 -177.83,43.9 -231.76,117.4 l -577.69,787.8 c -102.55,139.9 -267.32,223.4 -440.74,223.4 h -39.16 c 5.81,45.1 12.59,90.3 20.42,135.4 l 454.87,38.4 c 54.69,4.6 100.54,43.2 114.44,96.3 42.55,162.5 100.65,321.4 172.87,472.7 32.58,68.9 68.54,136.8 106.88,201.8 27.97,47.4 22.92,107.4 -12.63,149.4 l -294.42,348.5 c 214.03,304.5 476.19,566.9 781.18,781.7 l 348.76,-294.7 c 41.95,-35.4 101.72,-40.6 149.12,-12.8 211.38,123.8 438.42,218 674.81,279.9 53.09,14 91.65,59.8 96.27,114.5 l 38.36,454.7 c 363.1,62.7 740.84,62.8 1104.98,0.3 l 38.3,-455 c 4.6,-54.7 43.2,-100.6 96.3,-114.5 236.5,-61.8 463.7,-156 675.1,-279.9 47.4,-27.8 107.2,-22.6 149.2,12.9 l 348.4,294.6 c 304.8,-214.8 567.1,-477.1 781.4,-781.7 l -294.3,-348.5 c -35.5,-41.9 -40.6,-101.6 -12.9,-149 124.1,-212.4 218.3,-439.5 280,-674.9 13.9,-53.1 59.7,-91.7 114.4,-96.3 l 454.6,-38.3 c 31.2,-180.7 47.1,-366.1 47.1,-552.7 0,-186.5 -15.9,-372 -47.1,-552.5 z m -4794.08,552.5 c 0,422.7 162.6,822.2 457.84,1125 305.76,313.6 715.37,486.3 1153.39,486.3 438.11,0 847.55,-172.7 1153.15,-486.4 295.2,-302.4 457.8,-701.9 457.8,-1124.9 0,-247.4 -57.6,-491.6 -166,-711.4 H 8006.67 c -108.39,219.8 -165.95,464 -165.95,711.4 z M 12043.5,9568 11347,5457.8 c -46,-271.3 -279.1,-468.2 -554.3,-468.2 H 2461.13 c -137.73,0 -268.62,59.6 -359.06,163.4 -78.52,90.2 -119.64,206 -116.76,324.2 v 3.6 c 0.53,16.8 1.92,33.6 4.26,50.4 l 707.74,5093 c 29.78,214.3 215.39,375.9 431.73,375.9 h 3158.51 c 91.2,0 177.83,-43.9 231.77,-117.4 L 7097,10094.9 c 102.56,-139.9 267.33,-223.3 440.74,-223.3 h 4249.36 c 76.7,0 149.1,-33.7 198.7,-92.3 49.5,-58.6 70.5,-135.6 57.7,-211.3 z m -9687.93,2359.9 h 1255.55 v -668.6 h -482.08 c -344.97,0 -640.92,-257.7 -688.41,-599.4 L 1985.31,7383.3 v 4169.5 c 0,206.9 166.1,375.1 370.26,375.1 z m 2149.89,2550.5 v -452 h -452.03 z m 5870.34,-822.3 c -27.4,9 -54.9,17.7 -82.5,25.8 l -39.1,463.6 c -4.8,57.3 -46.9,104.6 -103.4,116.1 -458.53,92.9 -941.01,92.8 -1398.2,-0.4 -56.36,-11.5 -98.38,-58.8 -103.22,-116 l -39.08,-463.3 c -198.03,-58.6 -389.45,-138 -571.14,-236.9 l -355.19,300.1 c -43.94,37.1 -107.14,40.8 -155.11,9.1 -395.53,-261.7 -728.17,-594.6 -988.69,-989.4 -31.65,-48 -27.92,-111.1 9.17,-155 l 299.68,-354.8 c -25.38,-46.5 -49.52,-94 -72.09,-141.6 -65.9,-138.1 -121.16,-282.2 -164.77,-429.6 l -463.23,-39.1 c -57.24,-4.8 -104.49,-46.8 -116.03,-103.1 -19.24,-93.7 -34.29,-188.2 -45.45,-282.3 H 3870.27 v 2508 h 764.77 c 71.56,0 129.57,58 129.57,129.5 v 764.8 h 5611.19 z m 2494.9,-2114.5 c -11.6,56.3 -58.8,98.3 -116,103.1 l -463,39.1 c -58.4,197.4 -137.8,388.8 -237,571.1 l 299.9,354.9 c 37.1,43.9 40.8,107 9.1,155 -261,395 -593.7,727.9 -989,989.4 -48,31.7 -111.2,28 -155.1,-9.2 l -354.9,-300 c -75,40.8 -151.7,78.1 -229.8,112.2 v 1234 c 0,71.6 -58,129.6 -129.5,129.6 H 4635.07 c -0.72,0 -1.39,-0.2 -2.11,-0.2 -8.05,-0.2 -16.05,-0.8 -23.9,-2.5 -0.21,0 -0.41,-0.1 -0.62,-0.1 -7.3,-1.6 -14.39,-3.9 -21.34,-6.6 -1.9,-0.8 -3.73,-1.7 -5.58,-2.5 -5.44,-2.5 -10.68,-5.3 -15.76,-8.6 -1.51,-0.9 -3.06,-1.8 -4.52,-2.8 -6.26,-4.4 -12.3,-9.1 -17.83,-14.6 l -894.42,-894.4 c -5.56,-5.6 -10.33,-11.7 -14.7,-18 -0.93,-1.3 -1.71,-2.7 -2.58,-4.1 -3.34,-5.2 -6.28,-10.6 -8.81,-16.2 -0.8,-1.8 -1.6,-3.5 -2.31,-5.3 -2.86,-7.1 -5.26,-14.4 -6.81,-21.9 0,0 -0.02,-0.1 -0.03,-0.1 -1.63,-7.9 -2.3,-16 -2.43,-24.1 -0.01,-0.7 -0.2,-1.3 -0.2,-2 V 12187.1 H 2355.57 c -347.05,0 -629.4,-284.5 -629.4,-634.3 V 5472.9 c -1.78,-178.9 61.55,-353.4 180.45,-490 139.68,-160.5 341.79,-252.5 554.51,-252.5 h 8331.57 c 402,0 742.6,287.7 809.8,684.1 l 696.5,4110.2 c 19.5,115 -0.4,231.4 -54.5,332.2 16.7,47.2 32.7,95 47.1,143.8 l 463,38.9 c 57.2,4.8 104.5,46.7 116.1,103 46.7,227.3 70.3,462.7 70.3,699.5 0,236.9 -23.6,472.2 -70.3,699.5"
         style="fill:#29333f;fill-opacity:1;fill-rule:nonzero;stroke:none"
         transform="matrix(0.13333333,0,0,-0.13333333,0,2666.6667)" />
      <path
         id="path4"
         d="m 34880,14777 -588.8,-588.9 h 588.8 z"
         style="fill:#29333f;fill-opacity:1;fill-rule:nonzero;stroke:none"
         transform="matrix(0.13333333,0,0,-0.13333333,0,2666.6667)" />
      <path
         id="path5"
         d="m 42711.8,9785.3 c -3.4,4.7 -7.1,9.4 -10.9,13.9 -58.3,68.8 -143.7,108.4 -233.9,108.4 h -4447.3 c -170.8,0 -332.9,82.1 -433.9,220.1 l -604.5,824.1 c -63.1,85.8 -163.8,137 -269.9,137 h -3305.8 c -243.1,0 -451.9,-181.7 -485.4,-422.8 l -740.8,-5330.1 c -3.1,-21.3 -4.8,-42.7 -4.8,-63.7 v -27.1 c 4.1,-121.4 49.9,-238.7 130.6,-331.9 101,-116.3 247.5,-182.8 401.4,-182.8 h 8719.6 c 304.8,0 562.8,218 613.6,518.4 l 729,4301.5 c 13.5,80 -4.8,161.4 -51.3,227.5 -1.6,2.4 -3.7,5.1 -5.7,7.5"
         style="fill:#29333f;fill-opacity:1;fill-rule:nonzero;stroke:none"
         transform="matrix(0.13333333,0,0,-0.13333333,0,2666.6667)" />
      <path
         id="path6"
         d="m 36477.9,11614.6 c 9.1,44.4 46.1,77.3 91.1,81.1 l 508.2,43 c 45.8,160 105.5,317 177,466.5 26.5,56.6 55.3,112.5 85.8,167.1 l -328.9,389.3 c -29.1,34.2 -31.8,83.7 -7.1,121.3 270.2,409.5 615,754.7 1025.2,1025.9 37.6,25.1 87.1,22 121.7,-7.1 l 389.6,-328.9 c 200.7,111.2 413.2,199.4 633.6,262.8 l 42.7,507.8 c 4.1,45.1 37,82.4 81,91.2 474,96.6 974.7,97 1450,0.3 44.4,-8.8 77.3,-46 81.1,-91.1 l 43,-508.2 c 50.9,-14.6 101.7,-30.9 151.9,-48.2 v 1133.4 h -5940.4 v -834.4 c 0,-55.9 -45.4,-101.7 -101.7,-101.7 h -834.3 v -2692.5 h 2279.9 c 11.6,107.1 28.9,215.3 50.6,322.4"
         style="fill:#29333f;fill-opacity:1;fill-rule:nonzero;stroke:none"
         transform="matrix(0.13333333,0,0,-0.13333333,0,2666.6667)" />
      <path
         id="path7"
         d="m 43383,11499.4 -501.7,42.3 c -43.1,3.8 -79,33.9 -89.8,75.7 -65.5,249.1 -165.1,489.8 -296.7,714.9 -21.7,37.3 -17.6,84.1 10.2,117 l 324.8,384.5 c -234.3,338.3 -523.8,628.1 -862.5,862.7 l -384.5,-325.1 c -32.8,-27.7 -79.6,-31.8 -116.9,-10.1 -122.1,71.5 -249.2,133.6 -380.1,186.1 -109.1,44.1 -221,81 -335.3,110.5 -41.7,10.9 -71.8,46.8 -75.6,89.9 l -42.3,502 c -401.1,72.3 -819.1,72.3 -1219.5,-0.3 l -42.4,-501.7 c -3.7,-43.1 -33.9,-79 -75.6,-89.9 -250.2,-65.4 -490.5,-165.4 -714.6,-296.6 -37.3,-21.7 -84.1,-17.6 -117,10.1 l -385.1,325.1 c -338.7,-234.6 -628.2,-524.4 -862.2,-862.7 l 324.8,-384.5 c 28.2,-33.2 31.9,-80 10.2,-117.3 -40.7,-69.1 -79,-141 -113.6,-213.9 -76.3,-160.4 -138,-328.5 -182.7,-500.7 -11.2,-41.8 -47.1,-71.9 -90.2,-75.7 l -501.7,-42.3 c -12.6,-69.2 -23.1,-138.4 -30.9,-207.2 h 79.3 c 170.6,0 333,-82.4 433.6,-220 l 604.9,-824.5 c 62.7,-85.5 163.7,-136.6 269.8,-136.6 h 469.6 c -122.4,239.3 -186.5,507.1 -186.5,778.3 0,451.3 173.6,877.8 488.9,1201.2 326.5,334.6 763.8,519.1 1231.3,519.1 467.8,0 904.9,-184.5 1231.3,-519.1 315,-323.1 488.6,-749.6 488.6,-1201.2 0,-270.8 -64.1,-539 -185.8,-778.3 h 909.9 c 102.7,0 201.4,-30.5 284.5,-86.8 14.2,45.4 27.7,91.2 40,137.9 10.8,41.4 47.1,71.9 89.8,75.3 l 501.7,42.1 c 36,199 54.3,403.7 54.3,609.8 0,206.2 -18.3,411 -54.3,610"
         style="fill:#29333f;fill-opacity:1;fill-rule:nonzero;stroke:none"
         transform="matrix(0.13333333,0,0,-0.13333333,0,2666.6667)" />
      <path
         id="path8"
         d="m 33405.6,11292.2 h 538.4 v 767.6 h -1348 c -232.2,0 -421.4,-191.3 -421.4,-426.5 V 6778.8 l 544.2,3915.4 c 47.4,340.7 342.7,598 686.8,598"
         style="fill:#29333f;fill-opacity:1;fill-rule:nonzero;stroke:none"
         transform="matrix(0.13333333,0,0,-0.13333333,0,2666.6667)" />
      <path
         id="path9"
         d="m 27745.6,10289.6 -454.4,-38.1 c -54.7,-4.6 -100.5,-43.1 -114.5,-96.1 -8.1,-30.6 -17.4,-60.6 -26.4,-90.7 -76.3,42.5 -162.7,66 -252.3,66 h -605.6 c 92.2,224.4 140.5,466.7 140.5,711.4 0,491.1 -188.8,954.8 -531.4,1305.8 -354.6,364.1 -830,564.6 -1338.7,564.6 -508.4,0 -984,-200.5 -1338.9,-564.5 -342.7,-351.4 -531.5,-815.2 -531.5,-1305.9 0,-244.7 48.4,-487 140.5,-711.4 h -184.3 c -91.2,0 -177.8,43.9 -231.7,117.4 l -577.7,787.8 c -102.6,139.9 -267.4,223.4 -440.8,223.4 h -39.1 c 5.8,45.1 12.5,90.3 20.4,135.4 l 454.8,38.4 c 54.7,4.6 100.6,43.2 114.5,96.3 42.5,162.5 100.6,321.4 172.9,472.7 32.5,68.9 68.5,136.8 106.8,201.8 28,47.4 23,107.4 -12.6,149.4 l -294.4,348.5 c 214,304.5 476.2,566.9 781.2,781.7 l 348.7,-294.7 c 42,-35.4 101.8,-40.6 149.2,-12.8 211.3,123.8 438.4,218 674.8,279.9 53.1,14 91.6,59.8 96.2,114.5 l 38.4,454.7 c 363.1,62.7 740.8,62.8 1104.9,0.3 l 38.4,-455 c 4.6,-54.7 43.2,-100.6 96.3,-114.5 236.5,-61.8 463.6,-156 675.1,-279.9 47.4,-27.8 107.2,-22.6 149.1,12.9 l 348.5,294.6 c 304.8,-214.8 567.1,-477.1 781.4,-781.7 l -294.4,-348.5 c -35.4,-41.9 -40.5,-101.6 -12.9,-149 124.2,-212.4 218.4,-439.5 280,-674.9 14,-53.1 59.8,-91.7 114.5,-96.3 l 454.5,-38.3 c 31.3,-180.7 47.1,-366.1 47.1,-552.7 0,-186.5 -15.8,-372 -47.1,-552.5 z m -4794,552.5 c 0,422.7 162.6,822.2 457.8,1125 305.8,313.6 715.4,486.3 1153.4,486.3 438.1,0 847.6,-172.7 1153.1,-486.4 295.3,-302.4 457.8,-701.9 457.8,-1124.9 0,-247.4 -57.5,-491.6 -165.9,-711.4 h -2890.3 c -108.3,219.8 -165.9,464 -165.9,711.4 z M 27154.4,9568 26457.8,5457.8 c -45.9,-271.3 -279,-468.2 -554.3,-468.2 H 17572 c -137.7,0 -268.6,59.6 -359.1,163.4 -78.5,90.2 -119.6,206 -116.7,324.2 v 3.6 c 0.5,16.8 1.9,33.6 4.2,50.4 l 707.8,5093 c 29.8,214.3 215.4,375.9 431.7,375.9 h 3158.5 c 91.2,0 177.9,-43.9 231.8,-117.4 l 577.7,-787.8 c 102.5,-139.9 267.3,-223.3 440.7,-223.3 H 26898 c 76.7,0 149.1,-33.7 198.6,-92.3 49.6,-58.6 70.6,-135.6 57.8,-211.3 z m -9688,2359.9 H 18722 v -668.6 h -482.1 c -345,0 -640.9,-257.7 -688.4,-599.4 l -455.3,-3276.6 v 4169.5 c 0,206.9 166.1,375.1 370.2,375.1 z m 2149.9,2550.5 v -452 h -452 z m 5870.4,-822.3 c -27.4,9 -54.9,17.7 -82.5,25.8 l -39.1,463.6 c -4.9,57.3 -47,104.6 -103.4,116.1 -458.6,92.9 -941,92.8 -1398.2,-0.4 -56.4,-11.5 -98.4,-58.8 -103.2,-116 l -39.1,-463.3 c -198.1,-58.6 -389.5,-138 -571.2,-236.9 l -355.2,300.1 c -43.9,37.1 -107.1,40.8 -155.1,9.1 -395.5,-261.7 -728.1,-594.6 -988.7,-989.4 -31.6,-48 -27.9,-111.1 9.2,-155 l 299.7,-354.8 c -25.4,-46.5 -49.5,-94 -72.1,-141.6 -65.9,-138.1 -121.2,-282.2 -164.8,-429.6 l -463.2,-39.1 c -57.2,-4.8 -104.5,-46.8 -116,-103.1 -19.3,-93.7 -34.3,-188.2 -45.5,-282.3 h -2117.2 v 2508 h 764.8 c 71.6,0 129.6,58 129.6,129.5 v 764.8 h 5611.2 z m 2494.9,-2114.5 c -11.6,56.3 -58.8,98.3 -116.1,103.1 l -462.9,39.1 c -58.4,197.4 -137.9,388.8 -237,571.1 l 299.8,354.9 c 37.1,43.9 40.9,107 9.2,155 -261,395 -593.7,727.9 -989,989.4 -48,31.7 -111.2,28 -155.2,-9.2 l -354.8,-300 c -75,40.8 -151.7,78.1 -229.8,112.2 v 1234 c 0,71.6 -58,129.6 -129.5,129.6 h -5870.4 c -0.7,0 -1.4,-0.2 -2.1,-0.2 -8,-0.2 -16,-0.8 -23.9,-2.5 -0.2,0 -0.4,-0.1 -0.6,-0.1 -7.3,-1.6 -14.4,-3.9 -21.3,-6.6 -1.9,-0.8 -3.8,-1.7 -5.6,-2.5 -5.4,-2.5 -10.7,-5.3 -15.8,-8.6 -1.5,-0.9 -3,-1.8 -4.5,-2.8 -6.3,-4.4 -12.3,-9.1 -17.8,-14.6 l -894.4,-894.4 c -5.6,-5.6 -10.4,-11.7 -14.7,-18 -1,-1.3 -1.7,-2.7 -2.6,-4.1 -3.4,-5.2 -6.3,-10.6 -8.8,-16.2 -0.8,-1.8 -1.6,-3.5 -2.3,-5.3 -2.9,-7.1 -5.3,-14.4 -6.8,-21.9 0,0 -0.1,-0.1 -0.1,-0.1 -1.6,-7.9 -2.3,-16 -2.4,-24.1 0,-0.7 -0.2,-1.3 -0.2,-2 v -1709.7 h -1255.6 c -347,0 -629.4,-284.5 -629.4,-634.3 V 5472.9 c -1.7,-178.9 61.6,-353.4 180.5,-490 139.7,-160.5 341.8,-252.5 554.5,-252.5 h 8331.5 c 402.1,0 742.7,287.7 809.8,684.1 l 696.6,4110.2 c 19.5,115 -0.4,231.4 -54.6,332.2 16.7,47.2 32.8,95 47.2,143.8 l 462.9,38.9 c 57.3,4.8 104.6,46.7 116.2,103 46.6,227.3 70.3,462.7 70.3,699.5 0,236.9 -23.7,472.2 -70.3,699.5"
         style="fill:#29333f;fill-opacity:1;fill-rule:nonzero;stroke:none"
         transform="matrix(0.13333333,0,0,-0.13333333,0,2666.6667)" />
      <path
         id="path10"
         d="m 26173.7,10842.2 c 0,-247.5 -57.4,-491.7 -165.9,-711.7 h -2890.1 c -108.5,220 -166.2,464.2 -166.2,711.7 0,422.4 162.6,822.2 458.1,1124.7 305.8,313.6 715.2,486.6 1153.2,486.6 438.2,0 847.7,-172.7 1153.2,-486.6 295.4,-302.2 457.7,-702 457.7,-1124.7"
         style="fill:#e4e9f5;fill-opacity:1;fill-rule:nonzero;stroke:none"
         transform="matrix(0.13333333,0,0,-0.13333333,0,2666.6667)" />
      <path
         id="path11"
         d="m 18721.9,11928 v -668.9 h -482 c -345,0 -640.7,-257.5 -688.3,-599.3 l -455.5,-3276.5 v 4169.6 c 0,206.7 166.2,375.1 370.3,375.1 h 1255.5"
         style="fill:#e7d265;fill-opacity:1;fill-rule:nonzero;stroke:none"
         transform="matrix(0.13333333,0,0,-0.13333333,0,2666.6667)" />
      <path
         id="path12"
         d="m 27154.5,9567.9 -696.7,-4110.1 c -45.7,-271.4 -278.9,-468.4 -554.3,-468.4 H 17572 c -137.7,0 -268.6,59.6 -358.9,163.6 -78.8,90.4 -119.6,206 -117,324.3 v 3.5 c 0.7,16.9 2,33.7 4.6,50.5 l 707.4,5092.9 c 29.8,214.1 215.4,375.8 431.8,375.8 h 3158.7 c 91,0 177.8,-43.7 231.6,-117.3 l 577.9,-787.8 c 102.4,-139.9 267.2,-223.5 440.5,-223.5 H 26898 c 76.8,0 149.3,-33.4 198.9,-92 49.2,-58.6 70.3,-135.7 57.6,-211.5"
         style="fill:#e7d265;fill-opacity:1;fill-rule:nonzero;stroke:none"
         transform="matrix(0.13333333,0,0,-0.13333333,0,2666.6667)" />
      <path
         id="path13"
         d="m 27792.7,10842.2 c 0,-186.6 -15.6,-372.2 -47,-552.6 l -454.5,-38.2 c -54.7,-4.6 -100.4,-43.1 -114.3,-95.9 -8.1,-30.8 -17.5,-60.6 -26.6,-90.7 -76.1,42.4 -162.6,65.7 -252.3,65.7 h -605.4 c 92,224.5 140.2,466.8 140.2,711.7 0,491.1 -188.5,954.7 -531.2,1305.8 -354.7,364.1 -829.9,564.6 -1338.8,564.6 -508.3,0 -983.8,-200.5 -1338.9,-564.6 -342.7,-351.5 -531.5,-815.3 -531.5,-1305.8 0,-244.9 48.6,-487.2 140.6,-711.7 h -184.4 c -91,0 -177.8,44.1 -231.6,117.6 l -577.9,787.8 c -102.3,140 -267.2,223.2 -440.5,223.2 h -39.2 c 5.8,45.4 12.6,90.4 20.4,135.8 l 454.8,38.2 c 54.7,4.5 100.4,43.1 114.3,96.2 42.8,162.6 100.8,321.6 173,472.9 32.8,68.7 68.7,136.7 106.9,201.5 27.9,47.6 23,107.6 -12.6,149.7 l -294.5,348.5 c 214.2,304.5 476.2,566.9 781.4,781.7 l 348.5,-294.8 c 42.1,-35.3 101.7,-40.5 149.3,-12.6 211.3,123.7 438.3,218 674.8,279.8 53.1,14 91.7,59.6 96.2,114.4 l 38.2,454.8 c 363.2,62.5 740.9,62.5 1105,0.3 l 38.5,-455.1 c 4.5,-54.8 43.1,-100.4 96.2,-114.4 236.5,-61.8 463.9,-156.1 675.1,-279.8 47.6,-27.9 107.2,-22.7 149.3,12.6 l 348.3,294.8 c 304.8,-214.8 567.2,-477.2 781.6,-781.7 l -294.5,-348.5 c -35.3,-42.1 -40.4,-101.7 -12.9,-149 124.1,-212.5 218.3,-439.6 279.9,-675.1 13.9,-53.1 59.9,-91.7 114.6,-96.2 l 454.5,-38.2 c 31.4,-180.8 47,-366.1 47,-552.7"
         style="fill:#898888;fill-opacity:1;fill-rule:nonzero;stroke:none"
         transform="matrix(0.13333333,0,0,-0.13333333,0,2666.6667)" />
      <path
         id="path14"
         d="m 19616.3,14478.4 v -451.9 h -451.9 z"
         style="fill:#e4e9f5;fill-opacity:1;fill-rule:nonzero;stroke:none"
         transform="matrix(0.13333333,0,0,-0.13333333,0,2666.6667)" />
      <path
         id="path15"
         d="m 25486.6,14661.7 v -1005.5 c -27.2,8.8 -54.7,17.5 -82.3,25.6 l -39.2,463.6 c -4.8,57.3 -46.9,104.6 -103.3,116.3 -458.7,92.9 -941,92.6 -1398.1,-0.4 -56.3,-11.6 -98.5,-58.9 -103.3,-116.3 l -39.2,-463.2 c -197.9,-58.6 -389.4,-138 -571.1,-236.8 l -355,300 c -44.1,37.2 -107.3,40.8 -155.2,9.1 -395.5,-261.5 -728.2,-594.5 -988.6,-989.3 -31.8,-48 -28.2,-111.1 9,-155.2 l 299.7,-354.7 c -25.3,-46.3 -49.6,-94 -72.3,-141.6 -65.7,-138 -121.1,-282.1 -164.5,-429.5 l -463.3,-39.2 c -57.3,-4.9 -104.6,-46.7 -115.9,-103 -19.5,-93.6 -34.4,-188.2 -45.7,-282.5 h -2117.2 v 2508.2 h 764.8 c 71.6,0 129.6,58 129.6,129.6 v 764.8 h 5611.1"
         style="fill:#e4e9f5;fill-opacity:1;fill-rule:nonzero;stroke:none"
         transform="matrix(0.13333333,0,0,-0.13333333,0,2666.6667)" />
      <path
         id="path16"
         d="m 56398.9,9284.6 c 0,-470.7 -140.2,-926.5 -405.5,-1318.1 -597,-881.7 -1651.1,-2081.9 -3281.1,-2791.3 -12.4,-5.5 -25.6,-8.1 -38.9,-8.1 -13,0 -26.3,2.6 -38.6,8.1 -1630.3,709.4 -2684.4,1909.6 -3281.4,2791.3 -265,391.6 -405.2,847.4 -405.2,1318.1 v 4902.1 c 0,43.4 28.8,81.6 70.9,93.6 1508.6,424.3 2420.1,458.7 3372.8,458.7 h 563 c 953,0 1864.5,-34.4 3373.1,-458.7 41.8,-12 70.9,-50.2 70.9,-93.6 z m 211.6,5343.3 c -1801.1,525.7 -2861.7,524.1 -3797.5,523.1 l -139.6,-0.3 -139.3,0.3 c -935.8,1 -1996.4,2.6 -3797.5,-523.1 -117.9,-34.4 -200.5,-144.5 -200.5,-267.3 v -5076 c 0,-553.3 164.6,-1089.1 476.2,-1549 646.2,-954.4 1791,-2247.5 3574.3,-2987.7 56,-23.3 117.9,-23.3 173.9,0 1783.3,740.2 2928,2033.3 3574,2987.7 311.6,459.9 476.5,995.7 476.5,1549 v 5076 c 0,122.8 -82.6,232.9 -200.5,267.3"
         style="fill:#cae6fc;fill-opacity:1;fill-rule:nonzero;stroke:none"
         transform="matrix(0.13333333,0,0,-0.13333333,0,2666.6667)" />
      <path
         id="path17"
         d="m 54083.1,12061.7 v -841.9 h 267.3 c 238.7,0 432.8,-194.4 432.8,-432.8 V 8372.1 c 0,-238.4 -194.1,-432.8 -432.8,-432.8 h -3354 c -238.4,0 -432.8,194.4 -432.8,432.8 V 10787 c 0,238.4 194.4,432.8 432.8,432.8 h 267.6 v 841.9 c 0,777.4 632.3,1409.7 1409.4,1409.7 777.4,0 1409.7,-632.3 1409.7,-1409.7 z m -1691.2,2482.9 c -923.2,0 -1806.6,-32.7 -3249.4,-431.8 V 9284.6 c 0,-431.8 128.6,-849.7 371.9,-1209.2 577.9,-853.3 1593.7,-2012 3159,-2705.2 1565.5,693.2 2581.1,1851.9 3159.3,2705.2 243.3,359.5 371.9,777.4 371.9,1209.2 v 4828.2 c -1442.8,399.1 -2326.5,431.8 -3249.7,431.8 h -563"
         style="fill:#cae6fc;fill-opacity:1;fill-rule:nonzero;stroke:none"
         transform="matrix(0.13333333,0,0,-0.13333333,0,2666.6667)" />
      <path
         id="path18"
         d="M 50758,10787 V 8372.1 c 0,-131.5 107.2,-238.4 238.4,-238.4 h 3354 c 131.5,0 238.4,106.9 238.4,238.4 V 10787 c 0,131.5 -106.9,238.4 -238.4,238.4 h -3354 c -131.2,0 -238.4,-106.9 -238.4,-238.4"
         style="fill:#cae6fc;fill-opacity:1;fill-rule:nonzero;stroke:none"
         transform="matrix(0.13333333,0,0,-0.13333333,0,2666.6667)" />
      <path
         id="path19"
         d="m 51458.3,12061.7 v -841.9 h 226.8 v 841.9 c 0,545.2 443.4,988.6 988.3,988.6 545.2,0 988.6,-443.4 988.6,-988.6 v -841.9 h 226.8 v 841.9 c 0,670.2 -545.2,1215.4 -1215.4,1215.4 -669.9,0 -1215.1,-545.2 -1215.1,-1215.4"
         style="fill:#cae6fc;fill-opacity:1;fill-rule:nonzero;stroke:none"
         transform="matrix(0.13333333,0,0,-0.13333333,0,2666.6667)" />
      <path
         id="path20"
         d="m 52673.4,12856 c -438,0 -794,-356.4 -794,-794.3 v -841.9 h 1588.3 v 841.9 c 0,437.9 -356.4,794.3 -794.3,794.3"
         style="fill:#cae6fc;fill-opacity:1;fill-rule:nonzero;stroke:none"
         transform="matrix(0.13333333,0,0,-0.13333333,0,2666.6667)" />
      <path
         id="path21"
         d="m 55838.1,13689.6 c -71.5,0 -129.5,58 -129.5,129.6 v 1190.4 h -5740.8 c -71.5,0 -129.6,58 -129.6,129.6 0,71.6 58.1,129.6 129.6,129.6 h 5870.3 c 71.6,0 129.6,-58 129.6,-129.6 v -1320 c 0,-71.6 -58,-129.6 -129.6,-129.6"
         style="fill:#29333f;fill-opacity:1;fill-rule:nonzero;stroke:none"
         transform="matrix(0.13333333,0,0,-0.13333333,0,2666.6667)" />
      <path
         id="path22"
         d="m 56308.7,10219.6 c -21.3,0 -42.8,5.3 -62.7,16.3 -62.6,34.7 -85.2,113.5 -50.6,176.1 131,236.3 200.2,505.4 200.2,778.1 0,423 -162.6,822.5 -457.8,1124.9 -305.5,313.7 -715,486.4 -1153.1,486.4 -438,0 -847.6,-172.7 -1153.4,-486.3 -295.3,-302.8 -457.9,-702.3 -457.9,-1125 0,-272.7 69.3,-541.8 200.2,-778.1 34.7,-62.6 12.1,-141.4 -50.5,-176.1 -62.7,-34.6 -141.5,-12.1 -176.2,50.5 -152.2,274.7 -232.6,587.2 -232.6,903.7 0,490.7 188.8,954.5 531.5,1305.9 354.9,364 830.4,564.5 1338.9,564.5 508.6,0 984,-200.5 1338.6,-564.6 342.7,-351 531.5,-814.7 531.5,-1305.8 0,-316.5 -80.5,-629 -232.7,-903.7 -23.6,-42.7 -67.9,-66.8 -113.4,-66.8"
         style="fill:#ff0012;fill-opacity:1;fill-rule:nonzero;stroke:none"
         transform="matrix(0.13333333,0,0,-0.13333333,0,2666.6667)" />
      <path
         id="path23"
         d="m 57434.1,10059.9 c -15.3,0 -30.8,2.7 -45.9,8.4 -66.9,25.4 -100.6,100.2 -75.2,167.1 32.5,85.8 61.3,175.9 85.6,268 14,53 59.8,91.5 114.5,96.1 l 454.4,38.1 c 31.3,180.6 47.1,366 47.1,552.5 0,186.6 -15.8,372.1 -47.1,552.7 l -454.5,38.3 c -54.7,4.6 -100.6,43.2 -114.5,96.3 -61.6,235.4 -155.8,462.5 -280,675 -27.7,47.3 -22.5,107 12.9,148.9 l 294.4,348.5 c -214.3,304.6 -476.6,567 -781.4,781.7 l -348.5,-294.6 c -41.9,-35.5 -101.7,-40.7 -149.1,-12.9 -211.5,123.9 -438.7,218.1 -675.1,279.9 -53.2,13.9 -91.8,59.8 -96.4,114.5 l -38.3,455 c -364,62.5 -741.9,62.4 -1104.9,-0.2 l -38.4,-454.8 c -4.6,-54.7 -43.2,-100.5 -96.3,-114.4 -236.3,-61.9 -463.3,-156.1 -674.8,-280 -47.4,-27.8 -107.2,-22.6 -149.1,12.8 l -348.8,294.7 c -304.9,-214.8 -567.1,-477.2 -781.1,-781.7 l 294.4,-348.5 c 35.5,-42 40.6,-102 12.6,-149.4 -38.4,-65.1 -74.3,-133 -106.8,-201.8 -72.3,-151.3 -130.4,-310.2 -172.9,-472.7 -13.9,-53.1 -59.8,-91.7 -114.5,-96.3 l -454.8,-38.3 c -16,-92.1 -27.8,-184.4 -35.3,-275.6 -5.8,-71.3 -68.4,-124.7 -139.7,-118.5 -71.3,5.8 -124.4,68.3 -118.6,139.7 10.9,132.7 30.3,267.7 57.6,401.2 11.6,56.3 58.8,98.3 116.1,103.1 l 463.2,39.1 c 43.6,147.4 98.9,291.5 164.8,429.6 22.5,47.6 46.7,95.1 72,141.7 l -299.6,354.7 c -37.1,43.9 -40.9,107 -9.2,155 260.5,394.8 593.2,727.7 988.7,989.3 48,31.7 111.2,28 155.1,-9 l 355.2,-300.1 c 181.8,98.9 373.2,178.3 571.2,236.9 l 39,463.2 c 4.8,57.4 46.9,104.6 103.3,116.1 457.1,93.2 939.7,93.3 1398.2,0.4 56.4,-11.5 98.5,-58.8 103.4,-116.2 l 39,-463.5 c 198.1,-58.5 389.7,-137.9 571.5,-236.9 l 354.8,300 c 44,37.2 107.2,40.8 155.2,9.1 395.3,-261.4 728,-594.3 988.9,-989.3 31.7,-48 28,-111.1 -9.1,-155 l -299.8,-354.9 c 99.1,-182.3 178.5,-373.7 237,-571.1 l 462.9,-39.1 c 57.2,-4.8 104.5,-46.8 116,-103 46.7,-227.4 70.4,-462.7 70.4,-699.6 0,-236.8 -23.7,-472.2 -70.4,-699.5 -11.5,-56.3 -58.8,-98.2 -116.1,-103 l -462.9,-38.8 c -20.8,-70.2 -43.9,-138.9 -69.1,-205.3 -19.7,-51.8 -68.9,-83.6 -121.2,-83.6"
         style="fill:#ff0012;fill-opacity:1;fill-rule:nonzero;stroke:none"
         transform="matrix(0.13333333,0,0,-0.13333333,0,2666.6667)" />
      <path
         id="path24"
         d="m 49073.5,11348.2 c -71.6,0 -129.6,58 -129.6,129.6 v 2767 c 0,71.6 58,129.6 129.6,129.6 71.5,0 129.5,-58 129.5,-129.6 v -2767 c 0,-71.6 -58,-129.6 -129.5,-129.6"
         style="fill:#29333f;fill-opacity:1;fill-rule:nonzero;stroke:none"
         transform="matrix(0.13333333,0,0,-0.13333333,0,2666.6667)" />
      <path
         id="path25"
         d="m 49386.2,14374.4 h 452 v 452 z m 581.6,-259.1 h -894.4 c -52.5,0 -99.7,31.5 -119.7,80 -20.1,48.4 -9,104.1 28,141.1 l 894.5,894.4 c 37,37.1 92.7,48.3 141.2,28.1 48.4,-20 80,-67.2 80,-119.7 v -894.4 c 0,-71.5 -58.1,-129.5 -129.6,-129.5"
         style="fill:#29333f;fill-opacity:1;fill-rule:nonzero;stroke:none"
         transform="matrix(0.13333333,0,0,-0.13333333,0,2666.6667)" />
      <path
         id="path26"
         d="m 48461.8,11348.1 c -216.4,0 -402,-161.6 -431.7,-375.9 l -707.8,-5093 c -18.9,-136.4 22.1,-274.2 112.5,-378.1 90.5,-103.9 221.3,-163.5 359.1,-163.5 h 8331.5 c 275.2,0 508.3,196.9 554.3,468.2 l 696.6,4110.2 c 12.8,75.7 -8.3,152.7 -57.8,211.3 -49.5,58.6 -121.9,92.3 -198.7,92.3 h -4249.3 c -173.4,0 -338.2,83.5 -440.7,223.3 l -577.7,787.8 c -54,73.5 -140.6,117.4 -231.8,117.4 z m 7663.6,-6269.7 h -8331.5 c -212.7,0 -414.9,92.1 -554.6,252.5 -139.6,160.4 -203,373.3 -173.7,584 l 707.8,5093 c 47.5,341.7 343.4,599.4 688.4,599.4 h 3158.5 c 173.4,0 338.2,-83.5 440.7,-223.4 l 577.7,-787.8 c 54,-73.5 140.6,-117.4 231.8,-117.4 h 4249.3 c 153.3,0 297.8,-67.1 396.7,-184.1 98.8,-117.1 140.9,-270.8 115.2,-421.8 l -696.5,-4110.2 c -67.2,-396.4 -407.7,-684.2 -809.8,-684.2"
         style="fill:#29333f;fill-opacity:1;fill-rule:nonzero;stroke:none"
         transform="matrix(0.13333333,0,0,-0.13333333,0,2666.6667)" />
      <path
         id="path27"
         d="m 47188.5,5667.4 c -71.6,0 -129.6,58 -129.6,129.6 v 6103.8 c 0,349.8 282.3,634.3 629.4,634.3 h 1385.2 c 71.5,0 129.5,-58 129.5,-129.6 0,-71.5 -58,-129.6 -129.5,-129.6 h -1385.2 c -204.2,0 -370.3,-168.2 -370.3,-375.1 V 5797 c 0,-71.6 -58,-129.6 -129.5,-129.6"
         style="fill:#29333f;fill-opacity:1;fill-rule:nonzero;stroke:none"
         transform="matrix(0.13333333,0,0,-0.13333333,0,2666.6667)" />
    </g>
  </g>
</svg>
