<?xml version="1.0" encoding="UTF-8" standalone="no"?>
<!-- Created with Inkscape (http://www.inkscape.org/) -->

<svg
   version="1.1"
   id="svg1"
   width="4002.6667"
   height="4002.6667"
   viewBox="0 0 4002.6667 4002.6667"
   sodipodi:docname="vecteezy_server-icon-illustration_55439097.eps"
   xmlns:inkscape="http://www.inkscape.org/namespaces/inkscape"
   xmlns:sodipodi="http://sodipodi.sourceforge.net/DTD/sodipodi-0.dtd"
   xmlns="http://www.w3.org/2000/svg"
   xmlns:svg="http://www.w3.org/2000/svg">
  <defs
     id="defs1" />
  <sodipodi:namedview
     id="namedview1"
     pagecolor="#ffffff"
     bordercolor="#000000"
     borderopacity="0.25"
     inkscape:showpageshadow="2"
     inkscape:pageopacity="0.0"
     inkscape:pagecheckerboard="0"
     inkscape:deskcolor="#d1d1d1">
    <inkscape:page
       x="0"
       y="0"
       inkscape:label="1"
       id="page1"
       width="4002.6667"
       height="4002.6667"
       margin="0"
       bleed="0" />
  </sodipodi:namedview>
  <g
     id="g1"
     inkscape:groupmode="layer"
     inkscape:label="1">
    <path
       id="path1"
       d="M 10,30010 H 30010 V 10 H 10 Z"
       style="fill:none;stroke:#000000;stroke-width:5.6693;stroke-linecap:butt;stroke-linejoin:miter;stroke-miterlimit:22.9256;stroke-dasharray:none;stroke-opacity:1"
       transform="matrix(0.13333333,0,0,-0.13333333,0,4002.6667)" />
    <path
       id="path2"
       d="m 21015.8,17258.2 c 77.2,7.9 169.7,3 244.2,3 27.1,0 224.3,9 241.8,-10.1 20.3,-47.2 14.3,-406.3 5.8,-480.3 -65.2,-13.5 -414.8,-11.2 -489.1,-2.8 z m -32.3,-298.2 c 0,-154.7 -22.6,-227.1 76.5,-227.1 l 454.1,2.4 c 28.1,150.1 9,377.9 6.7,532.6 -72.5,32.5 -322.6,11.5 -420.9,12.5 -133.5,1.3 -116.4,2.2 -116.4,-320.4"
       style="fill:#a5aa9a;fill-opacity:1;fill-rule:evenodd;stroke:none"
       transform="matrix(0.13333333,0,0,-0.13333333,0,4002.6667)" />
    <path
       id="path3"
       d="m 21440,12757.9 c -76.6,0 -371,-10.4 -423.5,8.3 -9.7,129.5 -3.2,346.5 -2.6,479.2 49.9,20.5 432.4,17.4 493.3,3.6 l 3.9,-419 c 0,-77.5 5.7,-72.1 -71.1,-72.1 z m 84.1,-8.3 5.8,230.4 c 0,248.2 26.5,304 -79.9,304 l -430,-1.7 c -46.2,-57.4 -34,-44.9 -33.5,-142.2 0.7,-134.8 -7.5,-245.4 -0.1,-384 80.8,-25.5 362.6,-13.4 463.8,-15.1 l 73.9,8.6"
       style="fill:#a5aa9a;fill-opacity:1;fill-rule:evenodd;stroke:none"
       transform="matrix(0.13333333,0,0,-0.13333333,0,4002.6667)" />
    <path
       id="path4"
       d="m 21016.6,14786.3 c 2.2,93 -11.8,411.5 11,475.4 73.8,6.4 166.4,1.7 242.4,1.7 41.3,0 218.2,19.1 228.3,-16.4 35.4,-50.4 13.5,-446.1 9.2,-494.5 l -482.5,1.1 z m 490.9,-33.8 c 16.5,10.2 20.1,14.1 23.2,56.5 l -1.4,201 c -1.5,75.6 10.8,197.1 -15.4,263.8 -51.9,15.7 -457.5,15.5 -507.5,-1.2 -35.4,-53.4 -18.3,-182.1 -21.4,-262.6 -1.9,-48.8 -15.6,-240.7 18.6,-265.5 18.2,-13.2 457.2,-13.7 484.1,-4.9 29.4,9.6 10.6,-12.2 19.8,12.9"
       style="fill:#a5aa9a;fill-opacity:1;fill-rule:evenodd;stroke:none"
       transform="matrix(0.13333333,0,0,-0.13333333,0,4002.6667)" />
    <path
       id="path5"
       d="m 18027.3,11752.8 3975.1,-3.1 -3.2,-1479.5 -3971.8,2.7 z m -25.5,-1490.7 c 67.5,-24.9 3129.2,-10.1 3758.2,-10.1 334.2,0 258.8,-146 258.8,758 0,136.9 17.7,659 -6.2,752.7 -92.9,17.6 -3166.9,4.9 -3512.6,4.9 -133.6,0 -381.4,14.1 -501.8,-5.8 -14.9,-89.4 -7.7,-1466.6 3.6,-1499.7"
       style="fill:#696969;fill-opacity:1;fill-rule:evenodd;stroke:none"
       transform="matrix(0.13333333,0,0,-0.13333333,0,4002.6667)" />
    <path
       id="path6"
       d="m 20513.6,14787.5 c -86.4,-30.3 -1437.4,-14.7 -1743.6,-14.7 -294.8,0 -248.1,-54.5 -247,237.2 1.1,301.8 -99.6,236.9 497,236.9 258.7,0 1401.4,17.6 1493.1,-14.9 -6,32.4 8.5,11.1 -11.3,37.9 -159.6,11.5 -349,2.6 -511.8,2.6 -333.3,0 -666.7,0 -1000,0 -109.3,0 -418.7,20.9 -484.8,-16.9 -11.1,-14.2 -23.2,-476.2 8.6,-501.1 94.5,-27.1 830.6,-8 996.2,-8 313.8,0 686,-18.1 992.7,2.6 18.8,26.9 5.2,6.7 10.9,38.4"
       style="fill:#696969;fill-opacity:1;fill-rule:evenodd;stroke:none"
       transform="matrix(0.13333333,0,0,-0.13333333,0,4002.6667)" />
    <path
       id="path7"
       d="m 21010,19248.8 c 20.6,24.9 -3,12.1 30,19.3 80.5,0 425.4,17.1 467.5,-9.9 23.6,-20.8 13.7,-63.7 13.6,-118.2 -0.1,-43.4 -0.1,-86.6 0.6,-130 l 1.4,-190.5 c -0.7,-67.5 -0.2,-32.2 -9.6,-53.1 -13.7,-30.8 -429.5,-18.7 -473.5,-14.3 -37.6,7.5 -7.9,-5 -30,17.8 z m -2440,10.3 h 1880 c 91.4,0 61.4,-34 61.4,-289.1 0,-224.3 16.9,-210.2 -61.4,-210.2 h -1879.4 c -87.1,0 -61.9,18.3 -61.1,250.2 0.7,222.5 -27.6,249.1 60.5,249.1 z m 3430,491.3 8.8,-1.7 -3920,2.9 c -87.3,0.5 -63.8,-18.7 -62.9,-111.6 2.4,-226.4 0,-453.4 1.5,-680 1.5,-219.6 -12.6,-473 1.8,-687.7 142.9,-15.2 2696.5,-3.1 2970.8,-3.1 149.2,0 920.1,-10.2 1000,5.7 v 1475.5"
       style="fill:#dfdfdf;fill-opacity:1;fill-rule:evenodd;stroke:none"
       transform="matrix(0.13333333,0,0,-0.13333333,0,4002.6667)" />
    <path
       id="path8"
       d="m 21018.7,10768.8 c -9.7,5.4 -14.5,-8.4 -16.7,50.4 l 7.4,440.7 c 63.3,14 452.4,16.3 506.2,-3.2 l 3.9,-466.8 c -8.5,-49.4 2.1,-10 -12.4,-27.6 -42.4,-28.9 -166.8,-10 -227.1,-10 -80,0 -160,0 -240,0 -32.4,7 -9.5,-4.9 -21.3,16.5 z m -2509.1,481.3 c 68,22.9 1441.5,9.6 1710.4,9.6 279.9,0 293,29.5 292.1,-68.8 l -0.7,-210.9 c 0,-231.5 17.1,-219.6 -61.4,-219.6 h -1880 c -53.9,0 -60.7,0 -60.7,49.6 z m -482.2,-977.2 3971.8,-2.7 3.2,1479.5 -3975.1,3.1 0.1,-1479.9"
       style="fill:#dfdfdf;fill-opacity:1;fill-rule:evenodd;stroke:none"
       transform="matrix(0.13333333,0,0,-0.13333333,0,4002.6667)" />
    <path
       id="path9"
       d="m 21450.2,12741 c -101.2,1.7 -383,-10.4 -463.8,15.1 -7.4,138.6 0.8,249.2 0.1,384 -0.5,97.3 -12.7,84.8 33.5,142.2 l 430,1.7 c 106.4,0 79.9,-55.8 79.9,-304 l -5.8,-230.4 z m -2920.1,508.4 c 12.8,13 -7.7,3.8 21.5,12.2 12.6,3.6 14.2,3.3 27.5,4.3 l 930.9,-1.1 c 143.3,0 927.7,17.7 993.8,-9.3 l 13.8,-455.9 c -8.7,-61.3 12.2,51 -3.9,-19.2 l -5.9,-18.4 c -23.3,-28 -1974.5,-14.8 -1987.8,-5.3 -32.5,23.1 -17.1,473.1 -17,473.3 13.2,30.7 -0.3,14.5 27.1,19.4 z m -497.4,-189.4 5.4,-773.4 3951.9,0.1 V 13731 l -280,8.8 -3675,0.9 -2.3,-680.7"
       style="fill:#dfdfdf;fill-opacity:1;fill-rule:evenodd;stroke:none"
       transform="matrix(0.13333333,0,0,-0.13333333,0,4002.6667)" />
    <path
       id="path10"
       d="m 21507.5,14752.5 c -9.2,-25.1 9.6,-3.3 -19.8,-12.9 -26.9,-8.8 -465.9,-8.3 -484.1,4.9 -34.2,24.8 -20.5,216.7 -18.6,265.5 3.1,80.5 -14,209.2 21.4,262.6 50,16.7 455.6,16.9 507.5,1.2 26.2,-66.7 13.9,-188.2 15.4,-263.8 l 1.4,-201 c -3.1,-42.4 -6.7,-46.3 -23.2,-56.5 z m -994.4,479.5 0.5,-444.5 c -5.7,-31.7 7.9,-11.5 -10.9,-38.4 -306.7,-20.7 -678.9,-2.6 -992.7,-2.6 -165.6,0 -901.7,-19.1 -996.2,8 -31.8,24.9 -19.7,486.9 -8.6,501.1 66.1,37.8 375.5,16.9 484.8,16.9 333.3,0 666.7,0 1000,0 162.8,0 352.2,8.9 511.8,-2.6 19.8,-26.8 5.3,-5.5 11.3,-37.9 z m -2483.7,478 1.5,-1360.9 c -0.4,-40.5 -8.9,-66.8 29.1,-66.8 l 3932.2,2.2 c 11.4,50.9 11.4,1400.1 0,1450.4 l -3932.2,5.1 c -25.4,0 -30.6,-4.4 -30.6,-30"
       style="fill:#dfdfdf;fill-opacity:1;fill-rule:evenodd;stroke:none"
       transform="matrix(0.13333333,0,0,-0.13333333,0,4002.6667)" />
    <path
       id="path11"
       d="m 20450,16733.1 -1953,3.4 c -26.3,131.4 -7.9,278.8 -8.8,413.5 -0.6,81 -19.9,129.9 71.8,129.9 h 1900 c 34.3,0 28.2,-0.2 59.8,-10.7 l 9.6,-459.2 c 0,-69.7 -12.5,-76.9 -79.4,-76.9 z m 533.5,226.9 c 0,322.6 -17.1,321.7 116.4,320.4 98.3,-1 348.4,20 420.9,-12.5 2.3,-154.7 21.4,-382.5 -6.7,-532.6 l -454.1,-2.4 c -99.1,0 -76.5,72.4 -76.5,227.1 z m -2945.4,-675.2 3946.7,0.1 -0.1,1446.2 c -519.5,27.3 -1408,10.5 -1964.7,10.5 -659.6,0 -1319.3,0 -1978.9,0 -20.9,-84.9 -12.5,-617.3 -5.6,-731.6 13.9,-229.2 2.6,-492.2 2.6,-725.2"
       style="fill:#dfdfdf;fill-opacity:1;fill-rule:evenodd;stroke:none"
       transform="matrix(0.13333333,0,0,-0.13333333,0,4002.6667)" />
    <path
       id="path12"
       d="m 11348.8,11330.1 c 3.5,53.2 42.4,172 57.9,221.8 13.9,45 21.7,42.9 30.8,95.8 8.9,52.1 11.4,67.3 26.8,106.8 l 1556.1,1.1 c 17.9,-1.8 13,-1.9 27.4,-5.4 32.1,-7.8 25.1,-36.3 28.5,-80.6 5.2,-67.1 0.5,-19.3 17.4,-56.9 9,-19.9 30.8,-105.9 33.8,-129.8 24,-26.6 53.3,-228.2 74.7,-292.5 31.7,-95.1 130.2,-540.8 155.6,-602.4 13.8,-33.4 73.4,-274.2 62.1,-326.5 l -2328.2,-0.4 c -8.8,57.9 61.8,320 85.3,414.2 6.9,27.7 13.1,27.1 18.1,64.8 4.9,35.9 -2.8,45.4 11.2,75.5 0.8,1.8 2.6,4 3.5,5.8 35,70.5 3.8,68.3 28.4,122.7 15.8,35 12.5,1.3 19.1,65.4 5.8,56.1 -3.7,22.5 17.6,67.1 z m -3838.8,1237 v 5590.1 c 2.22,53.8 5.32,90.9 9.58,103.2 0.81,2.4 2.1,4.8 2.9,7.1 l 34.04,96 c 23.89,81.6 60.34,158.8 109.27,230.7 46.7,68.6 101.07,132.7 164.1,185.9 l 223.56,146.4 446.55,103.5 h 7520 c 47.8,0 71.9,-7 114.1,-15.9 49.7,-10.3 128.8,-10.6 171.2,-28.8 l 134.6,-45.4 c 27.4,-10.2 20.3,-6.8 47.2,-22.8 l 239,-171 c 9.6,-9.4 7.5,-7.5 14.9,-15.1 l 65.3,-74.7 c 50.6,-58.8 80.8,-122.5 120.9,-189.1 13,-21.6 13.8,-22.4 19.6,-40.4 l 62.4,-197.6 c 5.1,-42 -3.2,-85.3 3.1,-126.9 5.3,-34.4 17.7,-53.9 17.7,-102.3 v -5210 c 0,-52.1 -12.3,-84.2 -17.6,-122.4 -19.4,-140.1 16.6,-54.5 -37.4,-242.6 l -49.3,-120.7 c -80.9,-144.6 -120.9,-214 -249.5,-320.5 -10,-8.2 -11.3,-9.7 -16.2,-13.8 l -121.9,-88.1 c -113.4,-60.5 -177.2,-80.6 -304.7,-115.3 -44,-11.9 -70.3,-16.9 -123.1,-16.9 l -2510.3,0.3 c 7,-30 8.3,-75.2 18.3,-101.7 l 23.4,-96.6 c 7.1,-39.8 21.2,-34.9 27.6,-92.5 L 13959,10309 c 7.2,-26.8 -1.6,-12.7 11,-39 l 440.1,0.1 c 150.3,1.4 109.9,52.1 109.9,-490.1 0,-23.41 -16.6,-40 -40,-40 h -4430 c -27,0 -27.6,4.77 -50,10 -5.23,22.43 -10,22.99 -10,50 0,524 -42.25,471 120,470 h 440 c 9.1,39 22.3,55.8 28.4,91.6 21.3,124 68.4,251.5 91.4,378.6 l 91.1,368.9 c 9.3,33.2 8.3,17.6 15.6,44.4 3.6,13 6.6,37.6 9.1,50.9 l 144.4,545.6 c -187.5,0 -2439.61,-11.9 -2568.68,1.3 -74.88,7.7 -143.6,36.1 -214.19,55.8 l -94.33,35.7 c -71.25,32.9 -139.79,83.5 -199.99,130 l -112.05,108 c -1.33,1.6 -3.26,3.8 -4.57,5.4 l -149.23,230.8 c -0.96,2.1 -2.01,4.8 -3,7 -1.29,2.8 -5.27,10.6 -6.6,13.4 -20.59,43.1 -7.81,24.8 -20.84,69.1 l -45.14,134.9 c -0.5,2.8 -0.95,12 -1.38,25.7 z m 499.21,382.9 c 0,64.1 -1.28,66.2 60.79,66.2 l 8426.2,-1 c 28.1,-96 15.9,-372.4 -18.9,-474.6 l -26.9,-51.9 c -1.1,-2 -2.4,-4.6 -3.5,-6.5 -10.3,-17.6 -1.3,-4.3 -11.2,-18.6 l -159.1,-148.9 c -7.1,-3.7 -11.4,-5 -20.7,-9.8 -16.8,-8.9 -4.2,-3.9 -18.6,-10.8 -35.4,-17 -162.4,-35.3 -207.3,-35.3 H 8500 c -155.68,0 -247.27,45.8 -353.7,137.3 -164.04,141.1 -137.09,364.7 -137.09,553.9 z m -0.21,5070 c 0,76.8 8.78,153.9 29.37,225.7 12.66,44.1 -13.42,-11.2 13.09,22.8 l 9.54,10.3 c 1.38,1.7 3.46,3.8 4.83,5.5 35.44,44.1 13.93,42.8 47,71.6 l 17.46,12.5 c 44.13,34.9 32.23,34.4 92.14,69.2 l 173.76,65.6 c 103.34,18.9 6339.41,6.9 7013.81,6.9 156.1,0 674.1,21.4 776.8,-23.5 130,-56.9 147.6,-57.7 234.6,-165 78.4,-96.7 87,-177.5 87,-301.6 v -4460 c 0,-42.5 -5.9,-48.4 -48.4,-48.4 l -8390,-0.5 c -51.76,0 -61,-6.2 -61,48.9 v 4460"
       style="fill:#000000;fill-opacity:1;fill-rule:evenodd;stroke:none"
       transform="matrix(0.13333333,0,0,-0.13333333,0,4002.6667)" />
    <path
       id="path13"
       d="m 18001.8,10262.1 c -11.3,33.1 -18.5,1410.3 -3.6,1499.7 120.4,19.9 368.2,5.8 501.8,5.8 345.7,0 3419.7,12.7 3512.6,-4.9 23.9,-93.7 6.2,-615.8 6.2,-752.7 0,-904 75.4,-758 -258.8,-758 -629,0 -3690.7,-14.8 -3758.2,10.1 z m 4508.2,9812 v -9760.2 c -0.9,-244.5 -2,-385.35 -3.5,-390.41 -10.3,-35.88 -61.3,-102.04 -89.1,-120.86 l -31.5,-18.5 C 22349.2,9761.8 22241.3,9740 22230,9740 h -4420 l -144.5,25.5 -93.2,66.8 c -59.1,60.38 -82.3,152.11 -82.3,237.7 v 9880 c 0,60.1 15.3,103.3 26.7,143.3 21.9,77.4 98.3,152.1 164.6,165.4 136.4,27.3 4022.2,11.3 4508.7,11.3 96,0 203.1,-5.7 262.9,-87.1 12.7,-17.1 26.8,-38.6 36.4,-53.6 l 14.6,-25.4 c 0.8,-2.4 1.9,-4.9 2.6,-7.4 1.5,-5.3 2.7,-13 3.5,-22.4 z M 17991.9,13710 c 0,96.3 94.3,69.5 188.1,69.5 635.8,-0.2 3774,12.9 3830.3,-8.4 29.1,-78 12.3,-1258 12.3,-1441.1 0,-79.8 8.7,-85.2 -72.6,-85.2 l -3957.2,11 z m 4015.2,2046.9 c 21.4,-20.4 16.8,-46.7 16.4,-86.7 -2.6,-282.9 15.3,-1324.4 -10.5,-1423.1 -96.9,-19.3 -386.2,-5 -503,-5 -414.7,0 -3433.2,-15.2 -3508.7,9.2 -16.3,49.6 -20.9,1420.9 -3.2,1520.6 116.6,20.1 3328.7,6.6 3781.9,6 68.9,-0.1 229,15.7 227.1,-21 z M 17990.3,17690 c 0,77.9 -1.7,84.9 79.7,84.9 h 3650 c 308.1,0 301.9,28.3 301.9,-84.9 0,-191.5 16,-1354.2 -11.8,-1443.2 L 18070,16241 c -34,0 -48.7,7.6 -70.5,18.1 -23,93.6 -9.2,1214.8 -9.2,1430.9 z m 4018.5,2058.7 -8.8,1.7 c 27.6,-20.9 10.9,9 18.7,-40 l -0.6,-710.4 c 0,-81.7 14.6,-711.7 -11.9,-736.7 -32.2,-23.7 -1800,-10.1 -2006.2,-10.1 -157.6,0 -1891.7,-11.5 -2001.5,5.3 -11.9,77.6 -6.4,1466 1.5,1491.5 64.2,34.1 170.6,17.9 250,17.9 l 3700.4,0.4 c 14.8,-1.2 15.7,-0.9 30,-5.1 25.5,-7.4 12.7,-2.3 28.4,-14.5"
       style="fill:#000000;fill-opacity:1;fill-rule:evenodd;stroke:none"
       transform="matrix(0.13333333,0,0,-0.13333333,0,4002.6667)" />
    <path
       id="path14"
       d="m 10656.4,16995.6 c 127.6,22.3 231.6,-4.5 352.8,-24.2 30.3,-4.9 63,-19 94,-27.5 67.5,-18.7 113,-55.1 168.2,-82.4 121,-59.9 187,-158.4 263.8,-235.8 29.3,-29.4 35.3,-34 59.1,-71.6 67.3,-106 88.8,-143.6 116.1,-251.9 9.2,-36.8 19.2,-58.9 26.4,-106 3.3,-22 3.9,-29.7 9.4,-45.3 5.3,-14.9 5.2,12.3 9.6,-31.5 12.6,-125.4 -7.7,-231.3 -27.2,-348.8 -6.6,-39.9 -17.3,-42.1 -29.2,-90.3 -14.1,-57 -49.8,-118.1 -78,-173.1 -71.9,-140.4 -164.2,-211.3 -272,-296.7 -27.1,-21.5 -9.6,-7.6 -36.8,-24.4 -82.7,-51 -124.1,-95.1 -243.6,-122.7 -46,-10.6 -50.5,-21.8 -99.9,-29.7 -42.6,-6.7 -62.6,-15.7 -99.8,-19.4 -86.9,-8.6 -173.1,-5.2 -243.4,11.4 -43.7,10.4 -70.8,3.2 -109.6,20.5 -84,37.5 -40.4,11.4 -91.9,27.8 -146.8,46.7 -274.3,142.5 -379.3,250.9 -1.4,1.5 -3.4,3.6 -4.9,5.1 -1.4,1.5 -3.4,3.7 -4.8,5.2 -57.05,61.2 -98.94,110.9 -135.56,186.9 -1.36,2.8 -5.34,11.5 -6.57,14 l -19.01,25.8 c -21.58,20.2 -44.96,80.7 -54.83,116.2 -55.54,199.7 -70.75,356.4 -29.25,563.4 l 39.25,152.2 116.09,191 c 168.18,207.1 103.18,108.5 205.88,204 99,92.1 91.7,60.1 170.8,109.9 96.5,60.7 219.9,77 334.2,97 z m -495,384.2 c -39.7,-1.3 -164.46,-77.9 -207.48,-103.6 -19.2,-11.5 -40.84,-27.4 -63.92,-33.7 l -271.54,265.6 c -101.69,103.4 -81.1,107.8 -191.81,-4.7 -57.69,-58.6 -99.29,-87 -171.87,-167.7 -84.14,-93.5 -139.55,-60.4 98.11,-272.7 58.79,-52.5 126.09,-145.4 172.58,-176.8 -7.72,-42.7 -30.31,-60.9 -64.37,-116.2 -1.12,-1.8 -2.9,-4.1 -3.99,-5.9 l -7.1,-12.2 c -0.99,-2 -2.07,-4.6 -3.01,-6.7 -7.63,-16.8 -6.45,-18.5 -14.98,-35.9 l -46.22,-104.1 c -31.44,-78.3 -84.92,-224.5 -87.71,-315.3 -7.41,-42 2.12,-36.4 -118.06,-35.3 l -401.24,-3.9 c -15.72,-50.6 -6.96,-294.7 -8.09,-380.9 -0.71,-54.2 -14.34,-90.1 29.38,-98.8 113.24,-22.4 422.05,36.5 489.92,-20 16.91,-32.1 12.23,-59.6 20.13,-97.7 12.59,-60.8 74.95,-177.4 76.72,-233.2 13.23,-79.1 123.97,-223.3 137.79,-280.1 -30.5,-46.6 -93.94,-99.7 -138.8,-145.7 -315.77,-323.4 -223.75,-189.8 22.8,-486.5 l 58.31,-61.3 c 70.3,-70.4 68.85,-28.6 157.52,59.1 l 224.27,226 c 20.11,20.3 22.67,17.5 41.26,36.4 l 289.1,-149.1 c 48.8,-20.9 111.8,-36.3 162.3,-57.6 52.6,-22.2 133.7,-8 151,-47 15.5,-7.6 19.8,8 26.4,-53.7 0.8,-6.6 -1.3,-49.9 -1.5,-60.6 l 1.7,-370.7 c 46.4,-19.2 421.1,-18.4 476.4,-3.9 l 3,504.6 40.1,10.6 c 52.7,1.3 94.5,20.5 171.1,32.7 54.6,8.7 11.7,5.6 78.2,29.8 27.9,10.2 42,13.8 77.1,25.8 l 270.4,144.9 c 36.7,-55.5 231.4,-224 277.2,-261.2 37.7,-30.7 50.9,-63.5 97.5,-83.6 39.3,18.1 138.4,118 179.7,161.1 29.8,31.1 56.5,54.6 85.8,84.1 31,31.2 75.4,64 69.1,95.8 -4.4,22.5 -344.1,337.3 -347.8,360 -4,24.1 99.6,183.5 112,210.1 l 86.5,221.9 c 7.6,37.2 25.4,145.4 32.9,161.8 11.5,33.7 0.3,24 50.7,27.1 17.5,1.1 51.4,-1.2 71.1,-1.3 80.9,-0.3 357.6,-6.9 402.9,6.9 7.5,78.1 2.8,173.5 2.8,253.5 0,299.3 92.1,257.1 -385.7,252.8 l -90.3,3.1 c -20.2,4.8 -18.2,5.4 -28.2,11.7 -25.6,13.3 -6.2,-24.3 -22.1,33.8 l -31.6,126.4 c -21.5,69.9 -41.9,146.2 -69.5,201.5 l -99.5,168.9 c -7,12 -10.3,21.2 -17.4,33.3 -18.4,31.5 -3.4,-9.5 -18.6,28.5 -0.5,24 221.5,225.8 271.4,275.6 74.5,74.5 109.6,93 51.9,150.3 L 12180,17430 c -41.3,42 -142,167.9 -176.6,162.5 -20.6,-3.2 -36,-22.5 -48.9,-36.4 l -229.7,-230.8 c -1.5,-1.5 -3.6,-3.6 -5,-5.1 l -34.9,-34.7 c -22.7,-23.9 -13.2,-24.7 -44.9,-37.7 -38.2,-5.4 -155.1,96.2 -220.4,102.3 -2.8,1 -6.1,3.2 -8.1,4.2 -48.1,23.6 -51,16.5 -92.2,32.6 -170.6,66.7 -193.2,50.2 -294.9,83.1 -28.1,69.7 -8.3,413.1 -12,523.8 l -483.7,-3.6 c -2.8,-83.2 9.7,-438.8 -4.6,-485.7 -11.2,-36.8 -35.8,-34.2 -74.7,-42.1 -94.9,-19.4 -248.9,-79.9 -288,-82.6"
       style="fill:#000000;fill-opacity:1;fill-rule:evenodd;stroke:none"
       transform="matrix(0.13333333,0,0,-0.13333333,0,4002.6667)" />
    <path
       id="path15"
       d="m 14371.2,16210.4 c 24.2,43.6 29.7,32.2 78.6,49.1 85.7,29.6 189.5,-15.7 241.2,-68.3 91,-92.5 81,-250.8 48,-298 l -34.9,-28.6 c -9.5,-26.3 -42.8,-52.9 -67.7,-70.7 -87.6,-62.7 -245.9,-25.8 -312.5,40.2 -20,19.8 -11.5,12.9 -26.3,41.8 -14.5,28.3 -10.2,12.1 -21.7,48.9 -33.5,106.3 -2.6,257.1 95.3,285.6 z m -117.6,506.3 c -14.5,-16.9 -57.2,-31.4 -83.9,-47 -172.3,-100.7 -103.2,-112.1 -264.5,-24.6 -59.4,32.3 -115.6,63.4 -172.2,98.5 -66.3,41 -96.2,62 -173,97.2 -55.4,-53.6 -201.1,-325.1 -243.5,-410.8 13,-15.5 11.2,-23 43.9,-40.9 2.7,-1.5 11.1,-4.9 13.8,-6.3 21.7,-11.4 26.3,-19.1 52.3,-35.6 l 345.9,-207.2 c 1.2,-56.7 -12.8,-80.5 -11.3,-140.1 1.4,-54.4 12.2,-72 11,-132.1 l -340,-199.6 c -99.7,-66.1 -208.7,22.6 59.3,-386.5 98.3,-150 39.1,-101.1 179.3,-35 110.7,52.2 238.8,133.3 321.6,173.4 45.4,22.1 87.1,-8.4 137.7,-52.4 83.8,-7 50,-8.8 83.4,-25.5 18.9,-9.4 21.7,-6.3 35.5,-15.2 46.9,-30.4 27.5,-135.4 27.5,-187 0,-77.1 -9.3,-306.5 7.2,-365.6 72.5,-6.8 162,-2.3 236.4,-2.3 36.5,0 192.9,-13.3 216.7,11.5 34,43.6 0.4,422.1 14.7,516.4 35.2,31.3 79.3,56.8 127.6,62.7 11,8.7 12.1,12.3 25.9,21.3 56.4,37.3 76.1,60.7 115.7,46.5 l 75.2,-44.8 c 88,-44.4 288.7,-201.2 374.2,-204.4 62.6,84.8 25,39.9 63.3,106.4 28.2,49.1 174.2,271.9 173.6,320.3 l -462.4,262 c -0.3,251.8 -27.3,265.9 52.6,311.9 l 402.9,228.3 c 2.1,41.8 -28.3,84.7 -52.4,117.3 -33.3,45 -16.9,40.3 -58.2,111.8 l -120.7,209.2 c -79.9,-29.5 -76.1,-45.3 -137.9,-79.3 -2.1,-1.2 -4.7,-2.4 -6.7,-3.6 -2,-1.1 -4.5,-2.5 -6.5,-3.7 l -23.7,-15.9 c -32.8,-21.2 -49.3,-28.5 -89.6,-49.3 -127.1,-65.6 -176.1,-151.5 -267.1,-79.5 -29.2,23.1 -57,38.5 -88,53.1 -28.6,13.6 -61.2,33.2 -77.7,39.8 -35.7,18.8 -23.9,0.5 -27.4,59 -6.3,103.4 13.5,378.9 -3,473.1 -41.2,16.6 -397.3,12.9 -457.9,4.6 -27.2,-97.4 0.4,-384.5 -8,-477.4 -5.3,-58.6 -6.9,-44.3 -21.6,-52.7"
       style="fill:#000000;fill-opacity:1;fill-rule:evenodd;stroke:none"
       transform="matrix(0.13333333,0,0,-0.13333333,0,4002.6667)" />
    <path
       id="path16"
       d="m 18509.6,11250.1 -0.3,-440.1 c 0,-49.6 6.8,-49.6 60.7,-49.6 h 1880 c 78.5,0 61.4,-11.9 61.4,219.6 l 0.7,210.9 c 0.9,98.3 -12.2,68.8 -292.1,68.8 -268.9,0 -1642.4,13.3 -1710.4,-9.6"
       style="fill:#000000;fill-opacity:1;fill-rule:evenodd;stroke:none"
       transform="matrix(0.13333333,0,0,-0.13333333,0,4002.6667)" />
    <path
       id="path17"
       d="m 18570,19259.1 c -88.1,0 -59.8,-26.6 -60.5,-249.1 -0.8,-231.9 -26,-250.2 61.1,-250.2 H 20450 c 78.3,0 61.4,-14.1 61.4,210.2 0,255.1 30,289.1 -61.4,289.1 h -1880"
       style="fill:#000000;fill-opacity:1;fill-rule:evenodd;stroke:none"
       transform="matrix(0.13333333,0,0,-0.13333333,0,4002.6667)" />
    <path
       id="path18"
       d="m 18530.1,13249.4 c -7.5,-58.3 -11.6,-414.9 3.7,-478.9 l 1952.9,4.1 c 27.6,78.6 10.3,354.4 10.3,461.7 -123,37.2 -1824.8,-15.5 -1966.9,13.1"
       style="fill:#000000;fill-opacity:1;fill-rule:evenodd;stroke:none"
       transform="matrix(0.13333333,0,0,-0.13333333,0,4002.6667)" />
    <path
       id="path19"
       d="m 18534.7,16785.3 c 78.9,-24 829.1,-7 975.3,-7 322.5,0 653.5,-7.3 975,0.9 l -1.8,456.3 -1947.7,-3.7 -0.8,-446.5"
       style="fill:#000000;fill-opacity:1;fill-rule:evenodd;stroke:none"
       transform="matrix(0.13333333,0,0,-0.13333333,0,4002.6667)" />
    <path
       id="path20"
       d="m 21010,18769.9 c 71.1,-7.2 441,-12 495.2,3.6 l -0.9,471.3 c -53.2,16.3 -422,10.4 -494.3,4 v -478.9"
       style="fill:#000000;fill-opacity:1;fill-rule:evenodd;stroke:none"
       transform="matrix(0.13333333,0,0,-0.13333333,0,4002.6667)" />
    <path
       id="path21"
       d="m 21018.7,10768.8 482,1 1.8,479.9 c -85.3,5.1 -411.3,12.1 -479.7,-3.2 l -4.1,-477.7"
       style="fill:#000000;fill-opacity:1;fill-rule:evenodd;stroke:none"
       transform="matrix(0.13333333,0,0,-0.13333333,0,4002.6667)" />
    <path
       id="path22"
       d="m 10529.2,16210 0.8,-428.5 c 78.4,-10.8 367.6,-7.2 460.8,-2.5 l -2.6,459.5 -428.2,2.3 c -25.4,0 -30.8,-5.4 -30.8,-30.8"
       style="fill:#000000;fill-opacity:1;fill-rule:evenodd;stroke:none"
       transform="matrix(0.13333333,0,0,-0.13333333,0,4002.6667)" />
    <path
       id="path23"
       d="m 21029.9,13050 -0.2,-265.5 c 102.5,0 379.6,-12.3 460.3,7.1 l 0.1,438.8 -49.8,10.2 -410.3,-1.8 -0.1,-188.8"
       style="fill:#000000;fill-opacity:1;fill-rule:evenodd;stroke:none"
       transform="matrix(0.13333333,0,0,-0.13333333,0,4002.6667)" />
    <path
       id="path24"
       d="m 21031.6,16782.8 408.6,-1.6 49.9,8.7 -0.1,436.3 c -68.5,19.5 -364.2,8.3 -457.8,8.3 l -1,-254.5 0.4,-197.2"
       style="fill:#000000;fill-opacity:1;fill-rule:evenodd;stroke:none"
       transform="matrix(0.13333333,0,0,-0.13333333,0,4002.6667)" />
    <path
       id="path25"
       d="m 14253.6,16716.7 c -7,61 -14.5,513.3 8.6,540.7 35.1,23.2 440.8,21.7 499.6,3.9 20.3,-59 12.4,-455.3 9.7,-551.2 16.5,-6.6 49.1,-26.2 77.7,-39.8 31,-14.6 58.8,-30 88,-53.1 91,-72 140,13.9 267.1,79.5 40.3,20.8 56.8,28.1 89.6,49.3 l 23.7,15.9 c 2,1.2 4.5,2.6 6.5,3.7 2,1.2 4.6,2.4 6.7,3.6 61.8,34 58,49.8 137.9,79.3 l 120.7,-209.2 c 41.3,-71.5 24.9,-66.8 58.2,-111.8 24.1,-32.6 54.5,-75.5 52.4,-117.3 l -402.9,-228.3 c -79.9,-46 -52.9,-60.1 -52.6,-311.9 l 462.4,-262 c 0.6,-48.4 -145.4,-271.2 -173.6,-320.3 -38.3,-66.5 -0.7,-21.6 -63.3,-106.4 -85.5,3.2 -286.2,160 -374.2,204.4 l -75.2,44.8 c -39.6,14.2 -59.3,-9.2 -115.7,-46.5 -13.8,-9 -14.9,-12.6 -25.9,-21.3 -1.9,-2.8 -4.6,-3.5 -5.8,-8.2 -1.3,-4.7 -9.8,-12.5 -12,-14.5 -26.2,-23.4 -40.1,-17.6 -78.8,-42.3 -10.4,-58.1 -5.1,-344.9 -4.3,-438 0.6,-72.2 4.1,-74.8 -30.6,-115.6 l -500,-0.7 -4.9,536.6 c -1.4,1.9 -4.5,7.5 -5.4,5.6 -0.9,-1.7 -4.5,4.4 -5.7,5.5 l -101.5,76.6 c -50.6,44 -92.3,74.5 -137.7,52.4 -82.8,-40.1 -210.9,-121.2 -321.6,-173.4 -140.2,-66.1 -81,-115 -179.3,35 -268,409.1 -159,320.4 -59.3,386.5 l 340,199.6 c 1.2,60.1 -9.6,77.7 -11,132.1 -1.5,59.6 12.5,83.4 11.3,140.1 l -345.9,207.2 c -26,16.5 -30.6,24.2 -52.3,35.6 -2.7,1.4 -11.1,4.8 -13.8,6.3 -32.7,17.9 -30.9,25.4 -43.9,40.9 42.4,85.7 188.1,357.2 243.5,410.8 76.8,-35.2 106.7,-56.2 173,-97.2 56.6,-35.1 112.8,-66.2 172.2,-98.5 161.3,-87.5 92.2,-76.1 264.5,24.6 26.7,15.6 69.4,30.1 83.9,47 z m -4092.2,663.1 c 10.5,15.9 7.6,19.5 38.7,32.7 10,4.3 31.8,8.7 44.9,13.6 129,48.4 141.6,36.5 251,76.5 0,507 -46.3,525.2 113.7,523.8 l 280.3,-0.2 c 49.2,0.1 104.6,9.1 125.4,-11 39.8,-43.1 1.2,-426.2 20.3,-521.8 21.9,-14.8 162.7,-38.6 209,-52.7 9.2,-2.8 63.8,-24.4 90.3,-34.5 84.2,-32.1 65.6,-20.2 84.6,-56.1 65.3,-6.1 182.2,-107.7 220.4,-102.3 31.7,13 22.2,13.8 44.9,37.7 l 34.9,34.7 c 1.4,1.5 3.5,3.6 5,5.1 l 229.7,230.8 c 12.9,13.9 28.3,33.2 48.9,36.4 34.6,5.4 135.3,-120.5 176.6,-162.5 l 136.1,-134.1 c 57.7,-57.3 22.6,-75.8 -51.9,-150.3 -49.9,-49.8 -271.9,-251.6 -271.4,-275.6 15.2,-38 0.2,3 18.6,-28.5 7.1,-12.1 10.4,-21.3 17.4,-33.3 l 99.5,-168.9 c 27.6,-55.3 48,-131.6 69.5,-201.5 l 31.6,-126.4 c 15.9,-58.1 -3.5,-20.5 22.1,-33.8 92.4,-1 185.7,-0.7 278.5,-0.7 64.8,0 210.4,22.4 245.2,-22.4 19.4,-25.5 18.9,-474.9 -0.4,-498.8 -47.7,-55.8 -440,-4.5 -546.6,-31.9 -7.5,-16.4 -25.3,-124.6 -32.9,-161.8 l -86.5,-221.9 c -12.4,-26.6 -116,-186 -112,-210.1 3.7,-22.7 343.4,-337.5 347.8,-360 6.3,-31.8 -38.1,-64.6 -69.1,-95.8 -29.3,-29.5 -56,-53 -85.8,-84.1 -41.3,-43.1 -140.4,-143 -179.7,-161.1 -46.6,20.1 -59.8,52.9 -97.5,83.6 -45.8,37.2 -240.5,205.7 -277.2,261.2 l -270.4,-144.9 c -35.1,-12 -49.2,-15.6 -77.1,-25.8 -66.5,-24.2 -23.6,-21.1 -78.2,-29.8 -76.6,-12.2 -118.4,-31.4 -171.1,-32.7 -39.7,-114.9 11.5,-392.9 -18.9,-529.8 -47.2,-16.5 -472.7,-21.7 -507.2,0.2 -14.3,14.7 -4.8,-3.6 -12.7,21.2 -4.9,15.4 -3.5,10.1 -5,27 -6.8,75.6 8.8,331.5 -2.3,455.1 -17.3,39 -98.4,24.8 -151,47 -50.5,21.3 -113.5,36.7 -162.3,57.6 L 9890,14768 c -18.59,-18.9 -21.15,-16.1 -41.26,-36.4 l -224.27,-226 c -88.67,-87.7 -87.22,-129.5 -157.52,-59.1 l -58.31,61.3 c -246.55,296.7 -338.57,163.1 -22.8,486.5 44.86,46 108.3,99.1 138.8,145.7 -13.82,56.8 -124.56,201 -137.79,280.1 -37.19,10.9 -45.91,65.2 -69.39,147.5 -13.31,46.7 -17.62,20.5 -24.57,82.4 -15.53,138.4 -63.57,94.8 -443.25,91.4 -66.8,-0.7 -65.25,-6.5 -104.87,28.6 -7.34,64.9 -12.28,448.7 5.23,488.1 85.59,52.9 420.71,-12.1 548.09,31.8 2.79,90.8 56.27,237 87.71,315.3 l 46.22,104.1 c 8.53,17.4 7.35,19.1 14.98,35.9 0.94,2.1 2.02,4.7 3.01,6.7 l 7.1,12.2 c 1.09,1.8 2.87,4.1 3.99,5.9 34.06,55.3 56.65,73.5 64.37,116.2 -46.49,31.4 -113.79,124.3 -172.58,176.8 -237.66,212.3 -182.25,179.2 -98.11,272.7 72.58,80.7 114.18,109.1 171.87,167.7 110.71,112.5 90.12,108.1 191.81,4.7 L 9890,17242.5 c 23.08,6.3 44.72,22.2 63.92,33.7 43.02,25.7 167.78,102.3 207.48,103.6 z M 8009,18020 v -4460 c 0,-55.1 9.24,-48.9 61,-48.9 l 8390,0.5 c 42.5,0 48.4,5.9 48.4,48.4 v 4460 c 0,124.1 -8.6,204.9 -87,301.6 -87,107.3 -104.6,108.1 -234.6,165 -102.7,44.9 -620.7,23.5 -776.8,23.5 -674.4,0 -6910.47,12 -7013.81,-6.9 l -173.76,-65.6 c -59.91,-34.8 -48.01,-34.3 -92.14,-69.2 l -17.46,-12.5 c -33.07,-28.8 -11.56,-27.5 -47,-71.6 -1.37,-1.7 -3.45,-3.8 -4.83,-5.5 l -9.54,-10.3 c -26.51,-34 -0.43,21.3 -13.09,-22.8 -20.59,-71.8 -29.37,-148.9 -29.37,-225.7"
       style="fill:#4192ca;fill-opacity:1;fill-rule:evenodd;stroke:none"
       transform="matrix(0.13333333,0,0,-0.13333333,0,4002.6667)" />
    <path
       id="path26"
       d="m 8009.21,12950 c 0,-189.2 -26.95,-412.8 137.09,-553.9 106.43,-91.5 198.02,-137.3 353.7,-137.3 h 7530 c 44.9,0 171.9,18.3 207.3,35.3 14.4,6.9 1.8,1.9 18.6,10.8 9.3,4.8 13.6,6.1 20.7,9.8 l 159.1,148.9 c 9.9,14.3 0.9,1 11.2,18.6 1.1,1.9 2.4,4.5 3.5,6.5 l 26.9,51.9 c 34.8,102.2 47,378.6 18.9,474.6 l -8426.2,1 c -62.07,0 -60.79,-2.1 -60.79,-66.2"
       style="fill:#e2e2e2;fill-opacity:1;fill-rule:evenodd;stroke:none"
       transform="matrix(0.13333333,0,0,-0.13333333,0,4002.6667)" />
    <path
       id="path27"
       d="m 10497.5,16272.1 c 63.8,13.7 458.7,12.5 525.8,0.2 22.7,-57.8 23.1,-486 -4.9,-520.4 -34.5,-37.3 -502.5,-16.3 -513.5,-6.7 -31.9,27.9 -25.1,466.4 -7.4,526.9 z m 158.9,723.5 c -114.3,-20 -237.7,-36.3 -334.2,-97 -79.1,-49.8 -71.8,-17.8 -170.8,-109.9 -102.7,-95.5 -37.7,3.1 -205.88,-204 l -116.09,-191 -39.25,-152.2 c -41.5,-207 -26.29,-363.7 29.25,-563.4 9.87,-35.5 33.25,-96 54.83,-116.2 l 19.01,-25.8 c 1.23,-2.5 5.21,-11.2 6.57,-14 36.62,-76 78.51,-125.7 135.56,-186.9 1.4,-1.5 3.4,-3.7 4.8,-5.2 1.5,-1.5 3.5,-3.6 4.9,-5.1 105,-108.4 232.5,-204.2 379.3,-250.9 51.5,-16.4 7.9,9.7 91.9,-27.8 38.8,-17.3 65.9,-10.1 109.6,-20.5 70.3,-16.6 156.5,-20 243.4,-11.4 37.2,3.7 57.2,12.7 99.8,19.4 49.4,7.9 53.9,19.1 99.9,29.7 119.5,27.6 160.9,71.7 243.6,122.7 27.2,16.8 9.7,2.9 36.8,24.4 107.8,85.4 200.1,156.3 272,296.7 28.2,55 63.9,116.1 78,173.1 11.9,48.2 22.6,50.4 29.2,90.3 19.5,117.5 39.8,223.4 27.2,348.8 -4.4,43.8 -4.3,16.6 -9.6,31.5 -5.5,15.6 -6.1,23.3 -9.4,45.3 -7.2,47.1 -17.2,69.2 -26.4,106 -27.3,108.3 -48.8,145.9 -116.1,251.9 -23.8,37.6 -29.8,42.2 -59.1,71.6 -76.8,77.4 -142.8,175.9 -263.8,235.8 -55.2,27.3 -100.7,63.7 -168.2,82.4 -31,8.5 -63.7,22.6 -94,27.5 -121.2,19.7 -225.2,46.5 -352.8,24.2"
       style="fill:#4397d0;fill-opacity:1;fill-rule:evenodd;stroke:none"
       transform="matrix(0.13333333,0,0,-0.13333333,0,4002.6667)" />
    <path
       id="path28"
       d="m 11348.8,11330.1 -73.9,-253.5 c -21.3,-44.6 -11.8,-11 -17.6,-67.1 -6.6,-64.1 -3.3,-30.4 -19.1,-65.4 -24.6,-54.4 6.6,-52.2 -28.4,-122.7 -0.9,-1.8 -2.7,-4 -3.5,-5.8 -14,-30.1 -6.3,-39.6 -11.2,-75.5 -5,-37.7 -11.2,-37.1 -18.1,-64.8 -23.5,-94.2 -94.1,-356.3 -85.3,-414.2 l 2328.2,0.4 c 11.3,52.3 -48.3,293.1 -62.1,326.5 -25.4,61.6 -123.9,507.3 -155.6,602.4 -21.4,64.3 -50.7,265.9 -74.7,292.5 -103.9,41.6 -32.5,27.5 -207.5,27.5 h -1490 c -37.8,-70 -30.9,-80.5 -45.4,-167 -20.8,-11.3 -11.2,-2.7 -35.8,-13.3"
       style="fill:#e4e4e4;fill-opacity:1;fill-rule:evenodd;stroke:none"
       transform="matrix(0.13333333,0,0,-0.13333333,0,4002.6667)" />
    <path
       id="path29"
       d="m 20513.6,14787.5 -0.5,444.5 c -91.7,32.5 -1234.4,14.9 -1493.1,14.9 -596.6,0 -495.9,64.9 -497,-236.9 -1.1,-291.7 -47.8,-237.2 247,-237.2 306.2,0 1657.2,-15.6 1743.6,14.7"
       style="fill:#020201;fill-opacity:1;fill-rule:evenodd;stroke:none"
       transform="matrix(0.13333333,0,0,-0.13333333,0,4002.6667)" />
    <path
       id="path30"
       d="m 11348.8,11330.1 c 24.6,10.6 15,2 35.8,13.3 14.5,86.5 7.6,97 45.4,167 h 1490 c 175,0 103.6,14.1 207.5,-27.5 -3,23.9 -24.8,109.9 -33.8,129.8 -16.9,37.6 -12.2,-10.2 -17.4,56.9 -3.4,44.3 3.6,72.8 -28.5,80.6 -14.4,3.5 -9.5,3.6 -27.4,5.4 l -1556.1,-1.1 c -15.4,-39.5 -17.9,-54.7 -26.8,-106.8 -9.1,-52.9 -16.9,-50.8 -30.8,-95.8 -15.5,-49.8 -54.4,-168.6 -57.9,-221.8"
       style="fill:#cccccc;fill-opacity:1;fill-rule:evenodd;stroke:none"
       transform="matrix(0.13333333,0,0,-0.13333333,0,4002.6667)" />
    <path
       id="path31"
       d="m 18029.4,15710 c 0,25.6 5.2,30 30.6,30 l 3932.2,-5.1 c 11.4,-50.3 11.4,-1399.5 0,-1450.4 l -3932.2,-2.2 c -38,0 -29.5,26.3 -29.1,66.8 z m 3977.7,46.9 c -205.9,17.1 -1748.7,4.2 -1997.1,4.2 -185.4,0 -1957.6,14.6 -1987.3,-13.5 -31.3,-29.8 -15.7,-653 -14.3,-737.6 1.9,-111.6 -13.6,-685.1 11.4,-740.1 50.3,-21.5 3933.9,-21.8 3980.4,-1.9 30,72.3 10.5,1315.5 6.9,1488.9"
       style="fill:#999999;fill-opacity:1;fill-rule:evenodd;stroke:none"
       transform="matrix(0.13333333,0,0,-0.13333333,0,4002.6667)" />
    <path
       id="path32"
       d="m 21016.6,14786.3 c 64,-16.9 405.1,-14.5 479.2,-4.1 l 2.5,464.8 c -10.1,35.5 -187,16.4 -228.3,16.4 -76,0 -168.6,4.7 -242.4,-1.7 -22.8,-63.9 -8.8,-382.4 -11,-475.4"
       style="fill:#030303;fill-opacity:1;fill-rule:evenodd;stroke:none"
       transform="matrix(0.13333333,0,0,-0.13333333,0,4002.6667)" />
    <path
       id="path33"
       d="m 18011.9,17060 v 630 c 0,57.8 -2.8,68.8 58.1,68.8 l 3860.6,-0.2 c 36.3,-0.1 44.9,4.1 68.3,-10.6 12.8,-25.8 22.2,-1383.2 3.7,-1472.5 l -3931.3,-8.2 c -86.4,0 -58.4,69.2 -58.4,152.7 z m -21.6,630 c 0,-216.1 -13.8,-1337.3 9.2,-1430.9 21.8,-10.5 36.5,-18.1 70.5,-18.1 l 3940.1,5.8 c 27.8,89 11.8,1251.7 11.8,1443.2 0,113.2 6.2,84.9 -301.9,84.9 h -3650 c -81.4,0 -79.7,-7 -79.7,-84.9"
       style="fill:#4d4d4d;fill-opacity:1;fill-rule:evenodd;stroke:none"
       transform="matrix(0.13333333,0,0,-0.13333333,0,4002.6667)" />
    <path
       id="path34"
       d="m 18035,13740.7 3675,-0.9 280,-8.8 v -1444.3 l -3951.9,-0.1 -5.4,773.4 z m -8.1,-1470.7 c 53.3,-22.7 3189.3,-6.4 3853.1,-8.8 l 89.5,0.8 c 32,4.7 9.8,-3 30.1,9.3 19.8,21.8 8.3,1108.6 8.3,1288.7 0,252.9 26.8,193 -237.9,194.4 l -3500,0.3 c -305.8,0 -255.7,43.9 -255.7,-174.7 0.1,-212.1 -13.9,-1249 12.6,-1310"
       style="fill:#b6b6b6;fill-opacity:1;fill-rule:evenodd;stroke:none"
       transform="matrix(0.13333333,0,0,-0.13333333,0,4002.6667)" />
    <path
       id="path35"
       d="m 22000,19750.4 v -1475.5 c -79.9,-15.9 -850.8,-5.7 -1000,-5.7 -274.3,0 -2827.9,-12.1 -2970.8,3.1 -14.4,214.7 -0.3,468.1 -1.8,687.7 -1.5,226.6 0.9,453.6 -1.5,680 -0.9,92.9 -24.4,112.1 62.9,111.6 l 3920,-2.9 c -15.7,12.2 -2.9,7.1 -28.4,14.5 -14.3,4.2 -15.2,3.9 -30,5.1 l -3700.4,-0.4 c -79.4,0 -185.8,16.2 -250,-17.9 -7.9,-25.5 -13.4,-1413.9 -1.5,-1491.5 109.8,-16.8 1843.9,-5.3 2001.5,-5.3 206.2,0 1974,-13.6 2006.2,10.1 26.5,25 11.9,655 11.9,736.7 l 0.6,710.4 c -7.8,49 8.9,19.1 -18.7,40"
       style="fill:#717171;fill-opacity:1;fill-rule:evenodd;stroke:none"
       transform="matrix(0.13333333,0,0,-0.13333333,0,4002.6667)" />
    <path
       id="path36"
       d="m 18026.9,12270 c -26.5,61 -12.5,1097.9 -12.6,1310 0,218.6 -50.1,174.7 255.7,174.7 l 3500,-0.3 c 264.7,-1.4 237.9,58.5 237.9,-194.4 0,-180.1 11.5,-1266.9 -8.3,-1288.7 -20.3,-12.3 1.9,-4.6 -30.1,-9.3 l -89.5,-0.8 c -663.8,2.4 -3799.8,-13.9 -3853.1,8.8 z m -35,1440 0.9,-1454.2 3957.2,-11 c 81.3,0 72.6,5.4 72.6,85.2 0,183.1 16.8,1363.1 -12.3,1441.1 -56.3,21.3 -3194.5,8.2 -3830.3,8.4 -93.8,0 -188.1,26.8 -188.1,-69.5"
       style="fill:#494949;fill-opacity:1;fill-rule:evenodd;stroke:none"
       transform="matrix(0.13333333,0,0,-0.13333333,0,4002.6667)" />
    <path
       id="path37"
       d="m 18038.1,16284.8 c 0,233 11.3,496 -2.6,725.2 -6.9,114.3 -15.3,646.7 5.6,731.6 659.6,0 1319.3,0 1978.9,0 556.7,0 1445.2,16.8 1964.7,-10.5 l 0.1,-1446.2 z m -25.2,135.2 c 0,-83.5 -28,-152.7 58.4,-152.7 l 3931.3,8.2 c 18.5,89.3 9.1,1446.7 -3.7,1472.5 -23.4,14.7 -32,10.5 -68.3,10.6 l -3860.6,0.2 c -60.9,0 -58.1,-11 -58.1,-68.8 v -630 l 1,-640"
       style="fill:#bababa;fill-opacity:1;fill-rule:evenodd;stroke:none"
       transform="matrix(0.13333333,0,0,-0.13333333,0,4002.6667)" />
    <path
       id="path38"
       d="m 14371.2,16210.4 c -97.9,-28.5 -128.8,-179.3 -95.3,-285.6 11.5,-36.8 7.2,-20.6 21.7,-48.9 14.8,-28.9 6.3,-22 26.3,-41.8 66.6,-66 224.9,-102.9 312.5,-40.2 24.9,17.8 58.2,44.4 67.7,70.7 12.7,45.8 23.1,41.6 31.2,77.3 19,84.1 5.8,169 -58.1,227.5 l -35.6,32.4 c -36,31.8 -39.9,31.6 -90.9,34.9 -137.2,8.8 -125.7,-12.9 -179.5,-26.3"
       style="fill:#3e8ac3;fill-opacity:1;fill-rule:evenodd;stroke:none"
       transform="matrix(0.13333333,0,0,-0.13333333,0,4002.6667)" />
    <path
       id="path39"
       d="m 22007.1,15756.9 c 3.6,-173.4 23.1,-1416.6 -6.9,-1488.9 -46.5,-19.9 -3930.1,-19.6 -3980.4,1.9 -25,55 -9.5,628.5 -11.4,740.1 -1.4,84.6 -17,707.8 14.3,737.6 29.7,28.1 1801.9,13.5 1987.3,13.5 248.4,0 1791.2,12.9 1997.1,-4.2 z m 0,0 c 1.9,36.7 -158.2,20.9 -227.1,21 -453.2,0.6 -3665.3,14.1 -3781.9,-6 -17.7,-99.7 -13.1,-1471 3.2,-1520.6 75.5,-24.4 3094,-9.2 3508.7,-9.2 116.8,0 406.1,-14.3 503,5 25.8,98.7 7.9,1140.2 10.5,1423.1 0.4,40 5,66.3 -16.4,86.7"
       style="fill:#464646;fill-opacity:1;fill-rule:evenodd;stroke:none"
       transform="matrix(0.13333333,0,0,-0.13333333,0,4002.6667)" />
    <path
       id="path40"
       d="m 18535.5,17231.8 1947.7,3.7 1.8,-456.3 c -321.5,-8.2 -652.5,-0.9 -975,-0.9 -146.2,0 -896.4,-17 -975.3,7 z m -30,-261.8 3.2,-200.2 c 156.4,-26 1656,-8.5 1941.3,-8.4 80.6,0.1 62.2,6.7 62.2,218.6 0,260.3 28.4,282.2 -72.2,282.2 h -1870 c -83,0 -64.2,-35.5 -63.7,-112 0.5,-60.2 -0.8,-120.1 -0.8,-180.2"
       style="fill:#2f2f2f;fill-opacity:1;fill-rule:evenodd;stroke:none"
       transform="matrix(0.13333333,0,0,-0.13333333,0,4002.6667)" />
    <path
       id="path41"
       d="m 18530.1,13249.4 c 142.1,-28.6 1843.9,24.1 1966.9,-13.1 0,-107.3 17.3,-383.1 -10.3,-461.7 l -1952.9,-4.1 c -15.3,64 -11.2,420.6 -3.7,478.9 z m 0,0 c -27.4,-4.9 -13.9,11.3 -27.1,-19.4 -0.1,-0.2 -15.5,-450.2 17,-473.3 13.3,-9.5 1964.5,-22.7 1987.8,5.3 l 5.9,18.4 c 16.1,70.2 -4.8,-42.1 3.9,19.2 l -13.8,455.9 c -66.1,27 -850.5,9.3 -993.8,9.3 l -930.9,1.1 c -13.3,-1 -14.9,-0.7 -27.5,-4.3 -29.2,-8.4 -8.7,0.8 -21.5,-12.2"
       style="fill:#575757;fill-opacity:1;fill-rule:evenodd;stroke:none"
       transform="matrix(0.13333333,0,0,-0.13333333,0,4002.6667)" />
    <path
       id="path42"
       d="m 18505.5,16970 c 0,60.1 1.3,120 0.8,180.2 -0.5,76.5 -19.3,112 63.7,112 h 1870 c 100.6,0 72.2,-21.9 72.2,-282.2 0,-211.9 18.4,-218.5 -62.2,-218.6 -285.3,-0.1 -1784.9,-17.6 -1941.3,8.4 z m 1944.5,-236.9 c 66.9,0 79.4,7.2 79.4,76.9 l -9.6,459.2 c -31.6,10.5 -25.5,10.7 -59.8,10.7 h -1900 c -91.7,0 -72.4,-48.9 -71.8,-129.9 0.9,-134.7 -17.5,-282.1 8.8,-413.5 l 1953,-3.4"
       style="fill:#ababab;fill-opacity:1;fill-rule:evenodd;stroke:none"
       transform="matrix(0.13333333,0,0,-0.13333333,0,4002.6667)" />
    <path
       id="path43"
       d="m 10161.4,17379.8 c 39.1,2.7 193.1,63.2 288,82.6 38.9,7.9 63.5,5.3 74.7,42.1 14.3,46.9 1.8,402.5 4.6,485.7 l 483.7,3.6 c 3.7,-110.7 -16.1,-454.1 12,-523.8 101.7,-32.9 124.3,-16.4 294.9,-83.1 41.2,-16.1 44.1,-9 92.2,-32.6 2,-1 5.3,-3.2 8.1,-4.2 -19,35.9 -0.4,24 -84.6,56.1 -26.5,10.1 -81.1,31.7 -90.3,34.5 -46.3,14.1 -187.1,37.9 -209,52.7 -19.1,95.6 19.5,478.7 -20.3,521.8 -20.8,20.1 -76.2,11.1 -125.4,11 l -280.3,0.2 c -160,1.4 -113.7,-16.8 -113.7,-523.8 -109.4,-40 -122,-28.1 -251,-76.5 -13.1,-4.9 -34.9,-9.3 -44.9,-13.6 -31.1,-13.2 -28.2,-16.8 -38.7,-32.7"
       style="fill:#384746;fill-opacity:1;fill-rule:evenodd;stroke:none"
       transform="matrix(0.13333333,0,0,-0.13333333,0,4002.6667)" />
    <path
       id="path44"
       d="m 14879,15362.7 c -48.3,-5.9 -92.4,-31.4 -127.6,-62.7 -14.3,-94.3 19.3,-472.8 -14.7,-516.4 -23.8,-24.8 -180.2,-11.5 -216.7,-11.5 -74.4,0 -163.9,-4.5 -236.4,2.3 -16.5,59.1 -7.2,288.5 -7.2,365.6 0,51.6 19.4,156.6 -27.5,187 -13.8,8.9 -16.6,5.8 -35.5,15.2 -33.4,16.7 0.4,18.5 -83.4,25.5 l 101.5,-76.6 c 1.2,-1.1 4.8,-7.2 5.7,-5.5 0.9,1.9 4,-3.7 5.4,-5.6 l 4.9,-536.6 500,0.7 c 34.7,40.8 31.2,43.4 30.6,115.6 -0.8,93.1 -6.1,379.9 4.3,438 38.7,24.7 52.6,18.9 78.8,42.3 2.2,2 10.7,9.8 12,14.5 1.2,4.7 3.9,5.4 5.8,8.2"
       style="fill:#325e75;fill-opacity:1;fill-rule:evenodd;stroke:none"
       transform="matrix(0.13333333,0,0,-0.13333333,0,4002.6667)" />
    <path
       id="path45"
       d="m 10529.2,16210 c 0,25.4 5.4,30.8 30.8,30.8 l 428.2,-2.3 2.6,-459.5 c -93.2,-4.7 -382.4,-8.3 -460.8,2.5 z m 479.9,-428.3 c 20.6,40.7 12.9,420.4 -2.2,474.5 -61.5,20.8 -446.3,22.8 -497.9,-4.1 -11.5,-60.5 -16.8,-472.7 10.9,-490.4 23,-14.8 312.5,-7.1 380.3,-7.8 64,-0.6 82.2,-11.1 108.9,27.8"
       style="fill:#3a3d33;fill-opacity:1;fill-rule:evenodd;stroke:none"
       transform="matrix(0.13333333,0,0,-0.13333333,0,4002.6667)" />
    <path
       id="path46"
       d="m 9386.85,15420.1 c -1.77,55.8 -64.13,172.4 -76.72,233.2 -7.9,38.1 -3.22,65.6 -20.13,97.7 -67.87,56.5 -376.68,-2.4 -489.92,20 -43.72,8.7 -30.09,44.6 -29.38,98.8 1.13,86.2 -7.63,330.3 8.09,380.9 l 401.24,3.9 c 120.18,-1.1 110.65,-6.7 118.06,35.3 -127.38,-43.9 -462.5,21.1 -548.09,-31.8 -17.51,-39.4 -12.57,-423.2 -5.23,-488.1 39.62,-35.1 38.07,-29.3 104.87,-28.6 379.68,3.4 427.72,47 443.25,-91.4 6.95,-61.9 11.26,-35.7 24.57,-82.4 23.48,-82.3 32.2,-136.6 69.39,-147.5"
       style="fill:#445c64;fill-opacity:1;fill-rule:evenodd;stroke:none"
       transform="matrix(0.13333333,0,0,-0.13333333,0,4002.6667)" />
    <path
       id="path47"
       d="m 21031.2,16980 1,254.5 c 93.6,0 389.3,11.2 457.8,-8.3 l 0.1,-436.3 -49.9,-8.7 -408.6,1.6 z m -12.7,-212 c 74.3,-8.4 423.9,-10.7 489.1,2.8 8.5,74 14.5,433.1 -5.8,480.3 -17.5,19.1 -214.7,10.1 -241.8,10.1 -74.5,0 -167,4.9 -244.2,-3 l 2.7,-490.2"
       style="fill:#1b1e19;fill-opacity:1;fill-rule:evenodd;stroke:none"
       transform="matrix(0.13333333,0,0,-0.13333333,0,4002.6667)" />
    <path
       id="path48"
       d="m 21030,13238.8 410.3,1.8 49.8,-10.2 -0.1,-438.8 c -80.7,-19.4 -357.8,-7.1 -460.3,-7.1 l 0.2,265.5 z m 410,-480.9 c 76.8,0 71.1,-5.4 71.1,72.1 l -3.9,419 c -60.9,13.8 -443.4,16.9 -493.3,-3.6 -0.6,-132.7 -7.1,-349.7 2.6,-479.2 52.5,-18.7 346.9,-8.3 423.5,-8.3"
       style="fill:#22231c;fill-opacity:1;fill-rule:evenodd;stroke:none"
       transform="matrix(0.13333333,0,0,-0.13333333,0,4002.6667)" />
    <path
       id="path49"
       d="m 14253.6,16716.7 c 14.7,8.4 16.3,-5.9 21.6,52.7 8.4,92.9 -19.2,380 8,477.4 60.6,8.3 416.7,12 457.9,-4.6 16.5,-94.2 -3.3,-369.7 3,-473.1 3.5,-58.5 -8.3,-40.2 27.4,-59 2.7,95.9 10.6,492.2 -9.7,551.2 -58.8,17.8 -464.5,19.3 -499.6,-3.9 -23.1,-27.4 -15.6,-479.7 -8.6,-540.7"
       style="fill:#264d65;fill-opacity:1;fill-rule:evenodd;stroke:none"
       transform="matrix(0.13333333,0,0,-0.13333333,0,4002.6667)" />
    <path
       id="path50"
       d="m 10492.4,14514.3 c 11.1,-123.6 -4.5,-379.5 2.3,-455.1 1.5,-16.9 0.1,-11.6 5,-27 7.9,-24.8 -1.6,-6.5 12.7,-21.2 34.5,-21.9 460,-16.7 507.2,-0.2 30.4,136.9 -20.8,414.9 18.9,529.8 l -40.1,-10.6 -3,-504.6 c -55.3,-14.5 -430,-15.3 -476.4,3.9 l -1.7,370.7 c 0.2,10.7 2.3,54 1.5,60.6 -6.6,61.7 -10.9,46.1 -26.4,53.7"
       style="fill:#55594b;fill-opacity:1;fill-rule:evenodd;stroke:none"
       transform="matrix(0.13333333,0,0,-0.13333333,0,4002.6667)" />
    <path
       id="path51"
       d="m 11009.1,15781.7 c -26.7,-38.9 -44.9,-28.4 -108.9,-27.8 -67.8,0.7 -357.3,-7 -380.3,7.8 -27.7,17.7 -22.4,429.9 -10.9,490.4 51.6,26.9 436.4,24.9 497.9,4.1 15.1,-54.1 22.8,-433.8 2.2,-474.5 z m -511.6,490.4 c -17.7,-60.5 -24.5,-499 7.4,-526.9 11,-9.6 479,-30.6 513.5,6.7 28,34.4 27.6,462.6 4.9,520.4 -67.1,12.3 -462,13.5 -525.8,-0.2"
       style="fill:#467a96;fill-opacity:1;fill-rule:evenodd;stroke:none"
       transform="matrix(0.13333333,0,0,-0.13333333,0,4002.6667)" />
    <path
       id="path52"
       d="m 12228.2,15723.8 c 106.6,27.4 498.9,-23.9 546.6,31.9 19.3,23.9 19.8,473.3 0.4,498.8 -34.8,44.8 -180.4,22.4 -245.2,22.4 -92.8,0 -186.1,-0.3 -278.5,0.7 10,-6.3 8,-6.9 28.2,-11.7 l 90.3,-3.1 c 477.8,4.3 385.7,46.5 385.7,-252.8 0,-80 4.7,-175.4 -2.8,-253.5 -45.3,-13.8 -322,-7.2 -402.9,-6.9 -19.7,0.1 -53.6,2.4 -71.1,1.3 -50.4,-3.1 -39.2,6.6 -50.7,-27.1"
       style="fill:#557b88;fill-opacity:1;fill-rule:evenodd;stroke:none"
       transform="matrix(0.13333333,0,0,-0.13333333,0,4002.6667)" />
    <path
       id="path53"
       d="m 21018.7,10768.8 4.1,477.7 c 68.4,15.3 394.4,8.3 479.7,3.2 l -1.8,-479.9 z m 0,0 c 11.8,-21.4 -11.1,-9.5 21.3,-16.5 80,0 160,0 240,0 60.3,0 184.7,-18.9 227.1,10 14.5,17.6 3.9,-21.8 12.4,27.6 l -3.9,466.8 c -53.8,19.5 -442.9,17.2 -506.2,3.2 l -7.4,-440.7 c 2.2,-58.8 7,-45 16.7,-50.4"
       style="fill:#5f5f5f;fill-opacity:1;fill-rule:evenodd;stroke:none"
       transform="matrix(0.13333333,0,0,-0.13333333,0,4002.6667)" />
    <path
       id="path54"
       d="m 21010,19248.8 c 72.3,6.4 441.1,12.3 494.3,-4 l 0.9,-471.3 c -54.2,-15.6 -424.1,-10.8 -495.2,-3.6 22.1,-22.8 -7.6,-10.3 30,-17.8 44,-4.4 459.8,-16.5 473.5,14.3 9.4,20.9 8.9,-14.4 9.6,53.1 l -1.4,190.5 c -0.7,43.4 -0.7,86.6 -0.6,130 0.1,54.5 10,97.4 -13.6,118.2 -42.1,27 -387,9.9 -467.5,9.9 -33,-7.2 -9.4,5.6 -30,-19.3"
       style="fill:#7a7a7a;fill-opacity:1;fill-rule:evenodd;stroke:none"
       transform="matrix(0.13333333,0,0,-0.13333333,0,4002.6667)" />
    <path
       id="path55"
       d="m 21016.6,14786.3 8.4,-32.7 482.5,-1.1 c 4.3,48.4 26.2,444.1 -9.2,494.5 l -2.5,-464.8 c -74.1,-10.4 -415.2,-12.8 -479.2,4.1"
       style="fill:#454938;fill-opacity:1;fill-rule:evenodd;stroke:none"
       transform="matrix(0.13333333,0,0,-0.13333333,0,4002.6667)" />
    <path
       id="path56"
       d="m 14371.2,16210.4 c 53.8,13.4 42.3,35.1 179.5,26.3 51,-3.3 54.9,-3.1 90.9,-34.9 l 35.6,-32.4 c 63.9,-58.5 77.1,-143.4 58.1,-227.5 -8.1,-35.7 -18.5,-31.5 -31.2,-77.3 l 34.9,28.6 c 33,47.2 43,205.5 -48,298 -51.7,52.6 -155.5,97.9 -241.2,68.3 -48.9,-16.9 -54.4,-5.5 -78.6,-49.1"
       style="fill:#2c5a77;fill-opacity:1;fill-rule:evenodd;stroke:none"
       transform="matrix(0.13333333,0,0,-0.13333333,0,4002.6667)" />
  </g>
</svg>
