<?xml version="1.0" encoding="UTF-8" standalone="no"?>
<!-- Created with Inkscape (http://www.inkscape.org/) -->

<svg
   version="1.1"
   id="svg1"
   width="5334.6665"
   height="5334.6665"
   viewBox="0 0 5334.6665 5334.6665"
   sodipodi:docname="vecteezy_software-developer-icon-orogramming-icon_53088499.eps"
   xmlns:inkscape="http://www.inkscape.org/namespaces/inkscape"
   xmlns:sodipodi="http://sodipodi.sourceforge.net/DTD/sodipodi-0.dtd"
   xmlns="http://www.w3.org/2000/svg"
   xmlns:svg="http://www.w3.org/2000/svg">
  <defs
     id="defs1" />
  <sodipodi:namedview
     id="namedview1"
     pagecolor="#ffffff"
     bordercolor="#000000"
     borderopacity="0.25"
     inkscape:showpageshadow="2"
     inkscape:pageopacity="0.0"
     inkscape:pagecheckerboard="0"
     inkscape:deskcolor="#d1d1d1">
    <inkscape:page
       x="0"
       y="0"
       inkscape:label="1"
       id="page1"
       width="5334.6665"
       height="5334.6665"
       margin="0"
       bleed="0" />
  </sodipodi:namedview>
  <g
     id="g1"
     inkscape:groupmode="layer"
     inkscape:label="1">
    <g
       id="group-R5">
      <path
         id="path2"
         d="M 40005,5 H 5 V 40005 H 40005 V 5"
         style="fill:#ffffff;fill-opacity:1;fill-rule:nonzero;stroke:none"
         transform="matrix(0.13333333,0,0,-0.13333333,0,5334.6667)" />
      <path
         id="path3"
         d="M 40005,5 H 5 v 40000 h 40000 z"
         style="fill:none;stroke:#211d1d;stroke-width:10;stroke-linecap:butt;stroke-linejoin:miter;stroke-miterlimit:10;stroke-dasharray:none;stroke-opacity:1"
         transform="matrix(0.13333333,0,0,-0.13333333,0,5334.6667)" />
      <path
         id="path4"
         d="m 13884.9,18192.3 1772,1772.3 c 1.6,1.6 3.2,3.2 5.4,5.1 l 358.7,359 c 433.6,433.3 433.6,1136.1 0,1569.4 -433.5,433.5 -1135.8,433.5 -1569.3,0 L 11530.3,18977 c -192.9,-192.4 -307.2,-448.7 -323,-719.1 -0.5,-0.6 -0.5,-1.4 -0.5,-1.9 -0.5,-8.7 -0.5,-17.1 -1.1,-25.8 0,-0.5 0,-1 0,-1.9 -0.5,-11.9 -0.5,-24.1 -0.5,-36 0,-249.3 84,-490.2 236.2,-684.4 0.6,-0.8 1.1,-1.6 1.7,-2.5 3.2,-3.7 6.5,-7.8 9.7,-11.9 0.6,-0.5 1.1,-1.1 1.1,-1.6 6,-6.8 11.4,-13.6 17.3,-20.3 4.9,-5.7 9.8,-11.4 14.7,-17.4 1.1,-1 2.1,-2.4 3.2,-3.5 0.6,-0.5 1.1,-1.1 1.6,-1.6 3.3,-3.5 6.6,-7.3 9.8,-10.8 1.6,-1.7 3.3,-3.3 4.3,-4.7 0.6,-0.2 0.6,-0.2 0.6,-0.2 1.6,-1.7 2.7,-3.3 4.3,-4.9 7.1,-7.1 13.6,-14.1 20.6,-21.1 L 14423,14515.2 c 216.7,-216.5 500.7,-324.8 784.6,-324.8 284,0 568,108.3 784.7,325.1 216.8,216.8 325.2,500.7 325.2,784.7 0,284.2 -108.4,568.2 -325.2,784.9 l -2107.4,2107.2"
         style="fill:#3f76c1;fill-opacity:1;fill-rule:nonzero;stroke:none"
         transform="matrix(0.13333333,0,0,-0.13333333,0,5334.6667)" />
      <path
         id="path5"
         d="m 26125.1,18192.3 -1772,1772.3 c -1.6,1.6 -3.2,3.2 -5.4,5.1 l -358.7,359 c -433.6,433.3 -433.6,1136.1 0,1569.4 433.5,433.5 1135.8,433.5 1569.3,0 L 28479.7,18977 c 192.9,-192.4 307.3,-448.7 323,-719.1 0.5,-0.6 0.5,-1.4 0.5,-1.9 0.6,-8.7 0.6,-17.1 1.1,-25.8 0,-0.5 0,-1 0,-1.9 0.5,-11.9 0.5,-24.1 0.5,-36 0,-249.3 -84,-490.2 -236.2,-684.4 -0.6,-0.8 -1.1,-1.6 -1.7,-2.5 -3.2,-3.7 -6.5,-7.8 -9.7,-11.9 -0.5,-0.5 -1.1,-1.1 -1.1,-1.6 -6,-6.8 -11.4,-13.6 -17.3,-20.3 -4.9,-5.7 -9.8,-11.4 -14.7,-17.4 -1,-1 -2.1,-2.4 -3.2,-3.5 -0.6,-0.5 -1.1,-1.1 -1.6,-1.6 -3.3,-3.5 -6.5,-7.3 -9.8,-10.8 -1.6,-1.7 -3.2,-3.3 -4.3,-4.7 -0.6,-0.2 -0.6,-0.2 -0.6,-0.2 -1.6,-1.7 -2.7,-3.3 -4.3,-4.9 -7,-7.1 -13.6,-14.1 -20.6,-21.1 L 25587,14515.2 c -216.7,-216.5 -500.7,-324.8 -784.6,-324.8 -284,0 -567.9,108.3 -784.7,325.1 -216.8,216.8 -325.2,500.7 -325.2,784.7 0,284.2 108.4,568.2 325.2,784.9 l 2107.4,2107.2"
         style="fill:#3f76c1;fill-opacity:1;fill-rule:nonzero;stroke:none"
         transform="matrix(0.13333333,0,0,-0.13333333,0,5334.6667)" />
      <path
         id="path6"
         d="M 22918.3,22740.2 19161.5,12885 c -166.5,-443.8 -588.2,-715.8 -1037.6,-715.8 -127.7,0 -260.8,27.8 -394,72.1 -571.6,222 -860.1,860.2 -638.2,1437.3 l 3756.8,9849.6 c 216.3,577 860.1,860 1431.6,643.6 571.6,-216.3 860.1,-860.1 638.2,-1431.6"
         style="fill:#3f76c1;fill-opacity:1;fill-rule:nonzero;stroke:none"
         transform="matrix(0.13333333,0,0,-0.13333333,0,5334.6667)" />
      <path
         id="path7"
         d="m 32309.4,30724.1 c -6.4,-29.7 -17.6,-58.1 -27.1,-87.2 -140.5,-441.5 -549,-763.4 -1037.1,-763.4 h -6886 c -603.8,0 -1093.3,489.4 -1093.3,1093.3 0,603.9 489.5,1093.4 1093.3,1093.4 h 6886 c 603.9,0 1093.4,-489.5 1093.4,-1093.4 0,-83.7 -11.4,-164.4 -29.2,-242.7 z m -335.3,-5853.8 -0.5,-13642.8 c -0.1,-881.3 -714.5,-1595.7 -1595.8,-1595.7 H 9612.49 c -881.33,0 -1595.76,714.4 -1595.76,1595.7 l -0.48,13674.6 c 0.16,1486.1 -121.07,2936.8 1844.75,2993.6 446.5,35 19444,1.1 19444,1.1 2747.5,0.2 2669.3,-765.8 2669.1,-3026.5 z M 9711.17,31710.4 c 410.73,0 743.63,-332.9 743.63,-743.6 0,-410.6 -332.9,-743.6 -743.63,-743.6 -410.69,0 -743.61,333 -743.61,743.6 0,410.7 332.92,743.6 743.61,743.6 z m 2535.23,0 c 410.8,0 743.6,-332.9 743.6,-743.6 0,-410.6 -332.8,-743.6 -743.6,-743.6 -410.6,0 -743.6,333 -743.6,743.6 0,410.7 333,743.6 743.6,743.6 z m 2535.4,0 c 410.6,0 743.6,-332.9 743.6,-743.6 0,-410.6 -333,-743.6 -743.6,-743.6 -410.8,0 -743.6,333 -743.6,743.6 0,410.7 332.8,743.6 743.6,743.6 z M 35002,29376.7 c 0.1,553.8 17.6,1114.5 -33.1,1666.6 -123.1,1338 -1244.5,2382.7 -2559.8,2511.8 -432.1,42.5 -890.6,13.3 -1325.4,13 l -21968.96,-1.2 c -433.03,0.6 -879.01,47.2 -1310.02,0.2 -882.29,-93.3 -1590.03,-405.2 -2160.58,-1107.5 -696.92,-858 -634.53,-1806.5 -634.42,-2839.8 l 0.16,-19123.5 c -0.69,-479 -21.86,-967.6 29.71,-1444.1 143.51,-1326.5 1224.86,-2456 2554.99,-2602 357.85,-39.3 725.46,-26.3 1085.06,-25.8 l 23417.56,1.2 c 860.5,71.8 1641.1,368 2209.9,1044.6 740.2,880.3 695.2,1687.5 695.2,2754.3 l -0.3,19152.2"
         style="fill:#38404f;fill-opacity:1;fill-rule:nonzero;stroke:none"
         transform="matrix(0.13333333,0,0,-0.13333333,0,5334.6667)" />
    </g>
  </g>
</svg>
