<?xml version="1.0" encoding="UTF-8" standalone="no"?>
<!-- Created with Inkscape (http://www.inkscape.org/) -->

<svg
   version="1.1"
   id="svg1"
   width="5163.96"
   height="5163.96"
   viewBox="0 0 5163.96 5163.96"
   sodipodi:docname="ux.eps"
   xmlns:inkscape="http://www.inkscape.org/namespaces/inkscape"
   xmlns:sodipodi="http://sodipodi.sourceforge.net/DTD/sodipodi-0.dtd"
   xmlns="http://www.w3.org/2000/svg"
   xmlns:svg="http://www.w3.org/2000/svg">
  <defs
     id="defs1" />
  <sodipodi:namedview
     id="namedview1"
     pagecolor="#ffffff"
     bordercolor="#000000"
     borderopacity="0.25"
     inkscape:showpageshadow="2"
     inkscape:pageopacity="0.0"
     inkscape:pagecheckerboard="0"
     inkscape:deskcolor="#d1d1d1">
    <inkscape:page
       x="0"
       y="0"
       inkscape:label="1"
       id="page1"
       width="5163.96"
       height="5163.96"
       margin="0"
       bleed="0" />
  </sodipodi:namedview>
  <g
     id="g1"
     inkscape:groupmode="layer"
     inkscape:label="1">
    <g
       id="group-R5">
      <path
         id="path2"
         d="M 7261.74,38729.7 H 31467.9 c 3994,0 7261.8,-3267.8 7261.8,-7261.7 V 7261.8 C 38729.7,3267.8 35461.9,0 31467.9,0 H 7261.74 C 3267.77,0 0,3267.8 0,7261.8 V 31468 c 0,3993.9 3267.77,7261.7 7261.74,7261.7"
         style="fill:#f3f0ea;fill-opacity:1;fill-rule:evenodd;stroke:none"
         transform="matrix(0.13333333,0,0,-0.13333333,0,5163.96)" />
      <path
         id="path3"
         d="m 12652.9,30126.2 h -1226.6 v -735.5 c 169.2,156.1 384.5,269.6 637.8,315.6 l 402,72.8 z m 4924.9,0 h -2625.3 l 186.8,-347.1 401.8,-72.8 c 465.5,-84.4 802.8,-397.5 961.1,-782.7 39,559.7 432.8,1085.9 1058.6,1199.5 l 17,3.1 z m 7167.8,0 h -2625.7 l 17.2,-3.1 c 625.6,-113.6 1019.6,-639.9 1058.4,-1199.7 158.2,385.2 495.6,698.2 961.1,782.6 l 402.1,72.9 186.9,347.3 z m 3526.1,-735.9 v 735.9 h -1226.8 l 186.7,-347.4 402.1,-72.8 c 253.3,-45.9 468.8,-159.6 638,-315.7 z m -147.3,-2746.8 h 147.3 v 816.4 l -213.9,-223.5 55,-405 c 8.6,-63.2 12.4,-126 11.6,-187.9 z m -5724,0 h 1265.1 c -0.4,61.5 3.4,124.2 12,187.9 l 55,405 -282.3,295.2 c -222.4,232.5 -334.7,515.7 -352.8,800.4 -58.1,-136.3 -142.2,-266.3 -254.1,-383.3 l -542.9,-567.5 100,-737.7 z m -6368.3,0 h 1265.2 l 100,737.7 -542.8,567.5 c -111.9,117 -195.8,246.8 -254,383.1 -18.3,-284.6 -130.5,-567.7 -352.9,-800 l -282.3,-295.3 54.8,-404.9 c 8.7,-63.7 12.6,-126.6 12,-188.1 z m -4458.7,0 c -0.8,61.8 2.9,124.6 11.6,187.8 l 54.8,405.2 -213.5,223.3 v -816.3 h 147.1 z M 18857.5,22310 c 133.6,-16.1 266.3,-39.8 396.7,-70.8 55.9,-13.3 117.8,59.9 147.4,101.9 61.7,98.1 135.8,186.3 219.1,263 -301.4,-34.1 -562.6,-133.8 -763.2,-294.1 z m -400.4,-2564.6 c -6.5,-388 -9.8,-846.6 84.8,-1156.9 96.7,-317.7 331.5,-537.3 593,-729 58.9,-43.4 122.9,-78.8 190.2,-107.2 396.5,-166.8 892.3,-86.7 1255,128.3 432.3,256.6 656.9,669.5 656.9,1170.9 v 1071.9 c 0,11.1 0.2,33.8 -3.9,44.6 -34.7,48 -131.8,85.4 -241.9,113.5 -634.3,-520.1 -1449.7,-745.2 -2291.5,-578.5 -56.2,11.1 -161.3,38.1 -242.6,42.4 z M 16223.5,13625 c 633.1,-48.7 1201.3,-551.4 1201.3,-1286 v -2156.2 h 4152.6 c -64.2,1333.8 489.5,2635.9 1470.3,3521.2 -215.1,22 -440.6,20.9 -676.8,17.3 l -1604.5,-1604.5 c -501.5,-501.7 -1333.9,-501.5 -1835.5,0 l -1599.5,1599.4 -547.2,0.2 c -196,0 -384.5,-32.1 -560.7,-91.4 z M 26502.4,8680.9 c 578.7,175.3 1036.3,633 1211.6,1211.7 L 26502.4,8680.9 Z M 24497.6,11454 c 277,-8.1 555.7,-107 792.9,-313.7 l 1055.6,1055.3 c -193.4,41 -396.7,49.7 -603.5,19.9 -516.5,-74.3 -960.6,-361.1 -1245,-761.5 z m -4859,3626.5 210.2,-210.3 210.6,210.3 c -140.2,-7 -280.7,-7 -420.8,0 z m -2741.3,8966.7 h -6769.1 c -716.51,0 -1298.02,581.5 -1298.02,1298 l -0.1,6079 c 0,716.6 581.52,1298.1 1298.02,1298.1 h 19441.6 c 716.6,0 1298.2,-581.5 1298.2,-1298.1 v -6078.7 c 0,-716.6 -581.6,-1298.3 -1298.2,-1298.3 h -6778.8 c 810.2,-838.7 1042.2,-1986.5 1042.2,-3200.5 v -1795.2 c 0,-996.4 -371.7,-1942.8 -1027.7,-2668.7 l 19,-70.5 h 88.6 c 1261.1,0.2 2456.9,-555.3 3278.9,-1491.4 1031.8,-50.8 2014.6,-464.5 2781.3,-1175.4 901,-835.7 1414.2,-1998.7 1414.2,-3228.7 0,-2431.8 -1977.6,-4409.4 -4409.4,-4409.4 -1316.9,0 -2548.3,587 -3379.6,1579.2 h -8878.3 c -716.7,0 -1298.1,581.6 -1298.1,1298.2 v 3064.4 c 0,2406.2 1956.5,4362.3 4362.6,4362.7 h 88.6 l 19.1,71.1 c -655.9,725.7 -1027.5,1672.1 -1027.5,2668.3 0,535.7 58.8,1175 5.1,1696.5 -129.8,1260.2 174.1,2444.3 1027.4,3299.4 v 0"
         style="fill:#b6ac98;fill-opacity:1;fill-rule:evenodd;stroke:none"
         transform="matrix(0.13333333,0,0,-0.13333333,0,5163.96)" />
      <path
         id="path4"
         d="m 12168.8,30126.2 h -1226.6 v -735.5 c 169.2,156.1 384.5,269.6 637.8,315.6 l 401.9,72.8 z m 4924.8,0 h -2625.2 l 186.7,-347.1 401.8,-72.8 c 465.5,-84.4 802.9,-397.5 961.2,-782.7 38.9,559.7 432.8,1085.9 1058.5,1199.5 l 17,3.1 z m 7167.8,0 h -2625.7 l 17.2,-3.1 c 625.6,-113.6 1019.6,-639.9 1058.6,-1199.7 158.2,385.2 495.4,698.2 961.1,782.6 l 402.1,72.9 186.7,347.3 z m 3526.1,-735.9 v 735.9 h -1226.6 l 186.7,-347.4 401.9,-72.8 c 253.3,-45.9 468.8,-159.6 638,-315.7 z m -147.1,-2746.8 h 147.1 v 816.4 l -213.7,-223.5 54.8,-405 c 8.6,-63.2 12.4,-126 11.8,-187.9 z m -5724.2,0 h 1265.3 c -0.6,61.5 3.3,124.2 12,187.9 l 54.8,405 -282.3,295.2 c -222.4,232.5 -334.7,515.7 -352.8,800.4 -58.1,-136.3 -142.2,-266.3 -254.1,-383.3 l -542.7,-567.5 99.8,-737.7 z m -6368.2,0 h 1265.1 l 100.1,737.7 -542.8,567.5 c -111.9,117 -195.9,246.8 -254.1,383.1 -18.2,-284.6 -130.5,-567.7 -352.8,-800 l -282.3,-295.3 54.8,-404.9 c 8.7,-63.7 12.5,-126.6 12,-188.1 z m -4458.8,0 c -0.7,61.8 3,124.6 11.6,187.8 l 54.8,405.2 -213.4,223.3 v -816.3 h 147 z M 18373.4,22310 c 133.6,-16.1 266.2,-39.8 396.6,-70.8 55.9,-13.3 117.9,59.9 147.5,101.9 61.7,98.1 135.7,186.3 219.1,263 -301.4,-34.1 -562.6,-133.8 -763.2,-294.1 z m -400.5,-2564.6 c -6.4,-388 -9.7,-846.6 84.8,-1156.9 96.7,-317.7 331.6,-537.3 593,-729 58.9,-43.4 123,-78.8 190.2,-107.2 396.6,-166.8 892.5,-86.7 1254.9,128.3 432.4,256.6 657,669.5 657,1170.9 v 1071.9 c 0,11.1 0.2,33.8 -3.7,44.6 -34.7,48 -131.8,85.4 -242.1,113.5 -634.1,-520.1 -1449.6,-745.2 -2291.4,-578.5 -56.2,11.1 -161.3,38.1 -242.7,42.4 z M 15739.3,13625 c 633.2,-48.7 1201.3,-551.4 1201.3,-1286 v -2156.2 h 4152.6 c -64.2,1333.8 489.5,2635.9 1470.3,3521.2 -215.1,22 -440.4,20.9 -676.6,17.3 l -1604.5,-1604.5 c -501.5,-501.7 -1334.1,-501.5 -1835.6,0 l -1599.5,1599.4 -547.3,0.2 c -195.9,0 -384.4,-32.1 -560.7,-91.4 z M 26018.4,8680.9 c 578.5,175.3 1036.1,633 1211.4,1211.7 L 26018.4,8680.9 Z M 24013.6,11454 c 276.8,-8.1 555.5,-107 792.9,-313.7 l 1055.4,1055.3 c -193.4,41 -396.5,49.7 -603.3,19.9 -516.7,-74.3 -960.8,-361.1 -1245,-761.5 z m -4859.2,3626.5 210.4,-210.3 210.4,210.3 c -140.2,-7 -280.6,-7 -420.8,0 z m -2741.2,8966.7 H 9644.05 c -716.55,0 -1297.97,581.5 -1297.97,1298 l -0.1,6079 c 0,716.6 581.52,1298.1 1298.07,1298.1 H 29085.5 c 716.6,0 1298.2,-581.5 1298.2,-1298.1 v -6078.7 c 0,-716.6 -581.6,-1298.3 -1298.2,-1298.3 h -6778.8 c 810.2,-838.7 1042.2,-1986.5 1042.2,-3200.5 v -1795.2 c 0,-996.4 -371.7,-1942.8 -1027.7,-2668.7 l 19.2,-70.5 h 88.4 c 1261.1,0.2 2456.9,-555.3 3279.1,-1491.4 1031.6,-50.8 2014.6,-464.5 2781.1,-1175.4 901,-835.7 1414.2,-1998.7 1414.2,-3228.7 0,-2431.8 -1977.6,-4409.4 -4409.4,-4409.4 -1316.9,0 -2548.3,587 -3379.6,1579.2 h -8878.3 c -716.6,0 -1298,581.6 -1298,1298.2 v 3064.4 c 0,2406.2 1956.5,4362.3 4362.5,4362.7 h 88.7 l 19,71.1 c -655.8,725.7 -1027.4,1672.1 -1027.4,2668.3 0,535.7 58.8,1175 5,1696.5 -129.7,1260.2 174.2,2444.3 1027.5,3299.4 v 0"
         style="fill:#f3f0ea;fill-opacity:1;fill-rule:evenodd;stroke:none"
         transform="matrix(0.13333333,0,0,-0.13333333,0,5163.96)" />
      <path
         id="path5"
         d="m 12473.4,28213.8 c 432.3,-452.2 406.6,-373.4 322.6,-993.4 563.5,271.7 480.6,271.8 1044.2,0.1 -84,620 -109.9,541.1 322.6,993.5 -615.7,111.5 -548.6,62.7 -845,613.7 -296.4,-550.7 -229.2,-502 -844.4,-613.9 z m -86.5,-1886.5 c 171.7,0 749.4,324.8 931.7,412.7 l 788.2,-379.9 c 232.2,-111.9 504.5,85.9 469.8,341.4 l -117.6,867.2 604.9,632.4 c 178.1,186.3 73.9,506.5 -179.6,552.4 l -860.9,156 -414.4,770.6 c -122,227.1 -458.5,227.1 -580.8,0 l -414.6,-770.6 -861,-156 c -253.6,-46.1 -357.7,-366.1 -179.6,-552.4 l 604.6,-632.4 -117.4,-867.2 c -26.4,-195.6 131.6,-374.2 326.7,-374.2 z m 12179.2,1886.5 c 432.4,-452.4 406.6,-373.2 322.7,-993.4 563.6,271.7 480.9,271.8 1044.5,0.1 -84.2,620 -109.8,541.3 322.6,993.5 -615.8,111.5 -548.6,62.7 -845.1,613.7 -296.4,-550.9 -229.3,-502 -844.7,-613.9 z m 1776.3,-1886.5 c 195.2,0 353.4,178.3 326.8,374 l -117.6,867.1 604.8,632.4 c 178.2,186.4 74,506.5 -179.5,552.4 l -861.2,156.2 -414.3,770.6 c -121.9,227.1 -458.6,226.9 -580.7,0 l -414.5,-770.6 -861,-156.2 c -253.8,-46.1 -357.8,-366 -179.5,-552.4 l 604.8,-632.4 -117.6,-867.1 c -34.5,-255.6 237.7,-453.4 470.2,-341.5 l 788.1,380 c 182.3,-87.8 760,-412.5 931.2,-412.5 z m -6977.7,1043.5 c 176,0 682.7,-292.9 862,-379.2 -151.5,1115.4 -245.5,826.2 532.6,1639.7 -1107.5,200.8 -861.4,21.9 -1394.6,1013.1 -533.1,-991.3 -287,-812.3 -1394.5,-1013.1 778,-813.7 684,-524 532.7,-1639.7 179.2,86.4 685.7,379.2 861.8,379.2 z M 20636,26098.7 c 194.8,0 353,178.9 326.4,374 l -168.2,1240.6 865.2,904.7 c 178.2,186.4 74.2,506.5 -179.5,552.4 l -1231.8,223.4 -592.9,1102.7 c -122.2,227 -458.6,226.9 -580.8,0 l -593.2,-1102.7 -1231.8,-223.4 c -253.7,-46 -357.6,-366 -179.3,-552.4 l 865.2,-904.7 -168.3,-1240.6 c -34.6,-255.4 237.5,-453.3 469.9,-341.4 l 1127.8,543.4 c 216.2,-104.1 1093.6,-576 1271.3,-576 z M 9974,25675.3 h 18781.7 v 5419.1 H 9974 v -5419.1 z m 19111.5,-659.9 H 9644.05 c -182.12,0 -329.77,147.7 -329.77,329.8 l -0.1,6079 c 0,182.2 147.65,329.8 329.87,329.8 H 29085.5 c 182.2,0 330,-147.6 330,-329.8 v -6078.7 c -0.2,-182.2 -148,-330.1 -330,-330.1 z m -12100.4,-3929 c -292.5,3203.5 4689,3334.6 4771.2,349.8 -349.9,293.9 -892,519.4 -1731.2,542.8 -119.1,5.2 -228.7,-56.5 -290.3,-156.9 -4.2,-6.9 -422,-670.8 -1188.9,-524.9 -388.7,111.5 -1044.3,143 -1560.8,-210.8 z m 23.7,-1018.4 c 338.5,886.4 1270,609.4 1394.8,584.8 932.5,-185.8 1530.1,367.6 1771.4,658.7 965.5,-66.9 1498.7,-475.6 1546,-1188.1 v -1071.9 c 0,-2055.4 -2350,-2921 -3642.8,-1972.9 -1177.8,863.8 -1069.4,1699.1 -1069.4,2989.4 z M 13565.7,9214.6 h 1747 V 12339 c 0,425.7 659.7,425.7 659.7,0 V 9214.6 h 6296.5 c -678.7,1822.3 328.7,3930.3 2242.7,4501.2 -891,1045.6 -1841.3,968.8 -3030.7,968.8 l -1883.2,-1883.2 c -123.5,-123.7 -342.8,-123.9 -466.3,0 l -1882.9,1883 -948.3,0.2 c -1507.8,0 -2734.7,-1226.9 -2734.7,-2735 v -2735 h 0.2 z m 11555,3959.3 c -1456.2,-222.2 -2550.5,-1528.9 -2394.4,-3039.8 142.4,-1377.9 1318.8,-2498.8 2767.5,-2498.8 1533.9,0 2781.9,1247.9 2781.9,2781.9 0,1674.8 -1503.9,2979.3 -3155,2756.7 z m -7367.8,1938.9 324.8,1211.7 c 790.9,-374.8 1783.1,-374.8 2574.1,-0.2 l 324.8,-1211.6 -1611.9,-1611.8 -1611.8,1611.9 z M 22601,8554.9 c 613.2,-949.3 1680.9,-1579.3 2892.8,-1579.3 1897.6,0 3441.2,1543.8 3441.2,3441.2 0,1993 -1711.5,3578.7 -3696.5,3431.8 -630.4,927.6 -1687.8,1495.5 -2809.5,1495.5 l -831.7,-0.2 -360.3,1345.1 c 696.4,552.7 1143.5,1406.3 1143.7,2362.5 v 1795.2 c 172.2,1249 -257.4,2273.4 -1211.4,2886.7 -1062.6,683.1 -2546.5,683.1 -3609,0 -953.8,-613.2 -1383.4,-1637.5 -1211.4,-2886.5 28.7,-418.9 0,-1337.6 0,-1795.6 0,-956 447.4,-1809.4 1143.5,-2362.3 l -360.4,-1345.1 -831.5,-0.2 c -1871.8,0 -3394.4,-1522.7 -3394.4,-3394.5 V 8884.8 c 0,-182.2 147.7,-329.9 329.8,-329.9 H 22601 Z m 2207.6,422.3 c -84.3,0 -168.6,32.3 -233,96.5 l -850.2,849.8 c -301,301.2 165.3,767.3 466.3,466.9 l 617.1,-617 1987.1,1986.9 c 300.6,301.2 767.3,-165.5 466.3,-466.3 L 25041.7,9073.7 c -64,-64.2 -148.7,-96.5 -233.1,-96.5 v 0"
         style="fill:#333333;fill-opacity:1;fill-rule:evenodd;stroke:none"
         transform="matrix(0.13333333,0,0,-0.13333333,0,5163.96)" />
      <path
         id="path6"
         d="m 13840.2,27220.5 c -84,620 -109.9,541.1 322.6,993.5 -615.7,111.5 -548.6,62.7 -845,613.7 -296.4,-550.7 -229.2,-502 -844.4,-613.9 432.3,-452.2 406.6,-373.4 322.6,-993.4 563.5,271.7 480.6,271.8 1044.2,0.1"
         style="fill:#ffa721;fill-opacity:1;fill-rule:evenodd;stroke:none"
         transform="matrix(0.13333333,0,0,-0.13333333,0,5163.96)" />
      <path
         id="path7"
         d="m 17970.2,28631.3 c 778,-813.7 684,-524 532.7,-1639.7 179.2,86.4 685.7,379.2 861.8,379.2 176,0 682.7,-292.9 862,-379.2 -151.5,1115.4 -245.5,826.2 532.6,1639.7 -1107.5,200.8 -861.4,21.9 -1394.6,1013.1 -533.1,-991.3 -287,-812.3 -1394.5,-1013.1"
         style="fill:#ffa721;fill-opacity:1;fill-rule:evenodd;stroke:none"
         transform="matrix(0.13333333,0,0,-0.13333333,0,5163.96)" />
      <path
         id="path8"
         d="m 24566.1,28213.8 c 432.4,-452.4 406.6,-373.2 322.7,-993.4 563.6,271.7 480.9,271.8 1044.5,0.1 -84.2,620 -109.8,541.3 322.6,993.5 -615.8,111.5 -548.6,62.7 -845.1,613.7 -296.4,-550.9 -229.3,-502 -844.7,-613.9"
         style="fill:#ffa721;fill-opacity:1;fill-rule:evenodd;stroke:none"
         transform="matrix(0.13333333,0,0,-0.13333333,0,5163.96)" />
      <path
         id="path9"
         d="m 14576.6,26701.5 c 34.7,-255.5 -237.6,-453.3 -469.8,-341.4 l -788.2,379.9 c -182.3,-87.9 -760,-412.7 -931.7,-412.7 -195.1,0 -353.1,178.6 -326.7,374.2 l 117.4,867.2 -604.6,632.4 c -178.1,186.3 -74,506.3 179.6,552.4 l 861,156 414.6,770.6 c 122.3,227.1 458.8,227.1 580.8,0 l 414.4,-770.6 860.9,-156 c 253.5,-45.9 357.7,-366.1 179.6,-552.4 l -604.9,-632.4 z m 6217.6,1011.8 168.2,-1240.6 c 26.6,-195.1 -131.6,-374 -326.4,-374 -177.7,0 -1055.1,471.9 -1271.3,576 l -1127.8,-543.4 c -232.4,-111.9 -504.5,86 -469.9,341.4 l 168.3,1240.6 -865.2,904.7 c -178.3,186.4 -74.4,506.4 179.3,552.4 l 1231.8,223.4 593.2,1102.7 c 122.2,226.9 458.6,227 580.8,0 l 592.9,-1102.7 1231.8,-223.4 c 253.7,-45.9 357.7,-366 179.5,-552.4 l -865.2,-904.7 z M 9974,25675.3 h 18781.7 v 5419.1 H 9974 v -5419.1 z m 14296.5,1893.1 -604.8,632.4 c -178.3,186.4 -74.3,506.3 179.5,552.4 l 861,156.2 414.5,770.6 c 122.1,226.9 458.8,227.1 580.7,0 l 414.3,-770.6 861.2,-156.2 c 253.5,-45.9 357.7,-366 179.5,-552.4 l -604.8,-632.4 117.6,-867.1 c 26.6,-195.7 -131.6,-374 -326.8,-374 -171.2,0 -748.9,324.7 -931.2,412.5 l -788.1,-380 c -232.5,-111.9 -504.7,85.9 -470.2,341.5 l 117.6,867.1 v 0"
         style="fill:#1aa1ff;fill-opacity:1;fill-rule:evenodd;stroke:none"
         transform="matrix(0.13333333,0,0,-0.13333333,0,5163.96)" />
      <path
         id="path10"
         d="m 24808.8,9773.4 1987.1,1986.9 c 300.6,301.2 767.3,-165.5 466.3,-466.3 L 25041.7,9073.7 c -64,-64.2 -148.7,-96.5 -233.1,-96.5 -84.3,0 -168.6,32.3 -233,96.5 l -850.2,849.8 c -301,301.2 165.3,767.3 466.3,466.9 z m 3466.9,643.8 c 0,1674.8 -1503.9,2979.3 -3155,2756.7 -1456.2,-222.2 -2550.5,-1528.9 -2394.4,-3039.8 142.4,-1377.9 1318.8,-2498.8 2767.5,-2498.8 1533.9,0 2781.9,1247.9 2781.9,2781.9 v 0"
         style="fill:#1aa1ff;fill-opacity:1;fill-rule:evenodd;stroke:none"
         transform="matrix(0.13333333,0,0,-0.13333333,0,5163.96)" />
      <path
         id="path11"
         d="m 22268.9,9214.6 c -678.7,1822.3 328.7,3930.3 2242.7,4501.2 -891,1045.6 -1841.3,968.8 -3030.7,968.8 l -1883.2,-1883.2 c -123.5,-123.7 -342.8,-123.9 -466.3,0 l -1882.9,1883 -948.3,0.2 c -1507.8,0 -2734.7,-1226.9 -2734.7,-2735 l 0.2,-2735 h 1747 V 12339 c 0,425.7 659.7,425.7 659.7,0 V 9214.6 Z m -8703.4,0 v 0 0"
         style="fill:#7dd63e;fill-opacity:1;fill-rule:evenodd;stroke:none"
         transform="matrix(0.13333333,0,0,-0.13333333,0,5163.96)" />
      <path
         id="path12"
         d="m 19364.7,13500.9 1611.9,1611.8 -324.8,1211.6 c -791,-374.6 -1783.2,-374.6 -2574.1,0.2 l -324.8,-1211.7 1611.8,-1611.9"
         style="fill:#ff9e5c;fill-opacity:1;fill-rule:evenodd;stroke:none"
         transform="matrix(0.13333333,0,0,-0.13333333,0,5163.96)" />
      <path
         id="path13"
         d="m 18078.2,17078.6 c 1292.8,-948.1 3642.8,-82.5 3642.8,1972.9 v 1071.9 c -47.3,712.5 -580.5,1121.2 -1546,1188.1 -241.3,-291.1 -838.9,-844.5 -1771.4,-658.7 -124.8,24.6 -1056.3,301.6 -1394.8,-584.8 0,-1290.3 -108.4,-2125.6 1069.4,-2989.4"
         style="fill:#ff9e5c;fill-opacity:1;fill-rule:evenodd;stroke:none"
         transform="matrix(0.13333333,0,0,-0.13333333,0,5163.96)" />
      <path
         id="path14"
         d="m 18545.9,21297.2 c 766.9,-145.9 1184.7,518 1188.9,524.9 61.6,100.4 171.2,162.1 290.3,156.9 839.2,-23.4 1381.3,-248.9 1731.2,-542.8 -82.2,2984.8 -5063.7,2853.7 -4771.2,-349.8 516.5,353.8 1172.1,322.3 1560.8,210.8"
         style="fill:#58535a;fill-opacity:1;fill-rule:evenodd;stroke:none"
         transform="matrix(0.13333333,0,0,-0.13333333,0,5163.96)" />
    </g>
  </g>
</svg>
