<?xml version="1.0" encoding="UTF-8" standalone="no"?>
<!-- Created with Inkscape (http://www.inkscape.org/) -->

<svg
   version="1.1"
   id="svg1"
   width="5333.3335"
   height="5333.3335"
   viewBox="0 0 5333.3335 5333.3335"
   sodipodi:docname="vecteezy_information-content-development-website-web-flat-color-icon_19123179.eps"
   xmlns:inkscape="http://www.inkscape.org/namespaces/inkscape"
   xmlns:sodipodi="http://sodipodi.sourceforge.net/DTD/sodipodi-0.dtd"
   xmlns="http://www.w3.org/2000/svg"
   xmlns:svg="http://www.w3.org/2000/svg">
  <defs
     id="defs1" />
  <sodipodi:namedview
     id="namedview1"
     pagecolor="#ffffff"
     bordercolor="#000000"
     borderopacity="0.25"
     inkscape:showpageshadow="2"
     inkscape:pageopacity="0.0"
     inkscape:pagecheckerboard="0"
     inkscape:deskcolor="#d1d1d1">
    <inkscape:page
       x="0"
       y="0"
       inkscape:label="1"
       id="page1"
       width="5333.3335"
       height="5333.3335"
       margin="0"
       bleed="0" />
  </sodipodi:namedview>
  <g
     id="g1"
     inkscape:groupmode="layer"
     inkscape:label="1">
    <g
       id="group-R5">
      <path
         id="path2"
         d="M 40000,0 H 0 V 40000 H 40000 V 0"
         style="fill:#ffffff;fill-opacity:1;fill-rule:evenodd;stroke:none"
         transform="matrix(0.13333333,0,0,-0.13333333,0,5333.3333)" />
      <path
         id="path3"
         d="m 20105.3,4743 c 7094.7,0 12874,4009.9 13141.6,9023.7 H 6963.77 C 7231.4,8752.9 13013.6,4743 20105.3,4743 v 0"
         style="fill:#fbf9f0;fill-opacity:1;fill-rule:evenodd;stroke:none"
         transform="matrix(0.13333333,0,0,-0.13333333,0,5333.3333)" />
      <path
         id="path4"
         d="M 8045.61,14017 H 6593.68 c -139.53,0 -253.4,-114 -253.4,-250.3 v 0 c 0,-136.2 113.87,-247.5 253.4,-247.5 h 1451.93 c 139.52,0 253.39,111.3 253.39,247.5 v 0 c 0,136.3 -113.87,250.3 -253.39,250.3 z m 1335.22,0 H 33617 c 139.4,0 253.4,-114 253.4,-250.3 v 0 c 0,-136.2 -114,-247.5 -253.4,-247.5 H 9380.83 c -139.47,0 -253.39,111.3 -253.39,247.5 v 0 c 0,136.3 113.92,250.3 253.39,250.3 v 0"
         style="fill:#000000;fill-opacity:1;fill-rule:evenodd;stroke:none"
         transform="matrix(0.13333333,0,0,-0.13333333,0,5333.3333)" />
      <path
         id="path5"
         d="m 6215.04,11163.9 c 304.59,0 552.29,242 552.29,539.5 0,297.6 -247.7,539.5 -552.29,539.5 -304.64,0 -552.34,-241.9 -552.34,-539.5 0,-297.5 247.7,-539.5 552.34,-539.5 v 0"
         style="fill:#ffd65b;fill-opacity:1;fill-rule:evenodd;stroke:none"
         transform="matrix(0.13333333,0,0,-0.13333333,0,5333.3333)" />
      <path
         id="path6"
         d="m 33785,14918.1 c 304.6,0 552.3,241.9 552.3,539.4 0,297.5 -247.7,539.5 -552.3,539.5 -304.6,0 -552.4,-242 -552.4,-539.5 0,-297.5 247.8,-539.4 552.4,-539.4 v 0"
         style="fill:#f69173;fill-opacity:1;fill-rule:evenodd;stroke:none"
         transform="matrix(0.13333333,0,0,-0.13333333,0,5333.3333)" />
      <path
         id="path7"
         d="m 14551,3463.8 c 150.8,0 276.1,122.3 276.1,269.7 0,147.4 -125.3,269.8 -276.1,269.8 -151,0 -276.2,-122.4 -276.2,-269.8 0,-147.4 125.2,-269.7 276.2,-269.7 v 0"
         style="fill:#d1e287;fill-opacity:1;fill-rule:evenodd;stroke:none"
         transform="matrix(0.13333333,0,0,-0.13333333,0,5333.3333)" />
      <path
         id="path8"
         d="m 32128,6898 c 304.7,0 552.3,242 552.3,539.6 0,297.6 -247.6,539.5 -552.3,539.5 -304.6,0 -552.3,-241.9 -552.3,-539.5 0,-297.6 247.7,-539.6 552.3,-539.6 v 0"
         style="fill:#8dd7f7;fill-opacity:1;fill-rule:evenodd;stroke:none"
         transform="matrix(0.13333333,0,0,-0.13333333,0,5333.3333)" />
      <path
         id="path9"
         d="M 30214.9,8127.2 C 27803.5,6061.1 24170.8,4743 20105.3,4743 c -4062.5,0 -7698.1,1318.1 -10109.5,3384.2 -1554.44,1518.4 284.7,3823.7 2251.9,2691.9 2875.4,-1654.6 9804.9,-5667.3 17967.2,-2691.9 v 0"
         style="fill:#faf4d6;fill-opacity:1;fill-rule:evenodd;stroke:none"
         transform="matrix(0.13333333,0,0,-0.13333333,0,5333.3333)" />
      <path
         id="path10"
         d="m 10696.1,32245.5 c 153.8,0 276.2,119.5 276.2,269.6 0,147.5 -122.4,267 -276.2,267 -150.9,0 -273.3,-119.5 -273.3,-267 0,-150.1 122.4,-269.6 273.3,-269.6 v 0"
         style="fill:#d1e287;fill-opacity:1;fill-rule:evenodd;stroke:none"
         transform="matrix(0.13333333,0,0,-0.13333333,0,5333.3333)" />
      <path
         id="path11"
         d="m 33144.4,23955.8 c 150.9,0 276.2,119.5 276.2,269.7 0,147.4 -125.3,267 -276.2,267 -150.9,0 -276.1,-119.6 -276.1,-267 0,-150.2 125.2,-269.7 276.1,-269.7 v 0"
         style="fill:#ffd65b;fill-opacity:1;fill-rule:evenodd;stroke:none"
         transform="matrix(0.13333333,0,0,-0.13333333,0,5333.3333)" />
      <path
         id="path12"
         d="m 6829.96,23610.9 c 150.9,0 276.14,122.4 276.14,269.8 0,147.4 -125.24,269.7 -276.14,269.7 -150.91,0 -276.15,-122.3 -276.15,-269.7 0,-147.4 125.24,-269.8 276.15,-269.8 v 0"
         style="fill:#f69173;fill-opacity:1;fill-rule:evenodd;stroke:none"
         transform="matrix(0.13333333,0,0,-0.13333333,0,5333.3333)" />
      <path
         id="path13"
         d="m 23501.8,35457.3 c 304.6,0 552.3,241.9 552.3,539.5 0,297.5 -247.7,539.4 -552.3,539.4 -304.7,0 -552.3,-241.9 -552.3,-539.4 0,-297.6 247.6,-539.5 552.3,-539.5 v 0"
         style="fill:#8dd7f7;fill-opacity:1;fill-rule:evenodd;stroke:none"
         transform="matrix(0.13333333,0,0,-0.13333333,0,5333.3333)" />
      <path
         id="path14"
         d="m 23717.8,21593.3 c 0,-338 -289.8,-627.6 -627.8,-627.6 -178.5,0 -336.4,61.9 -454.8,162.2 -122.2,116.9 -197.8,281.5 -197.8,464.5 0,186.8 79.2,355 205,472.2 117.5,97.1 272.9,156.5 447.6,156.5 338,0 627.8,-289.9 627.8,-627.8"
         style="fill:#ff7979;fill-opacity:1;fill-rule:nonzero;stroke:none"
         transform="matrix(0.13333333,0,0,-0.13333333,0,5333.3333)" />
      <path
         id="path15"
         d="m 23717.8,26035.4 v -2897 c 0,-162.8 -102.4,-325 -279,-372.3 -0.5,-0.4 -0.9,-0.4 -1.6,-0.4 -26.4,-5.7 -53.5,-9.3 -81.6,-9.3 h -274.2 -272.8 c -205.1,0 -371.2,166.2 -371.2,371.9 v 561.5 1890.2 478.1 c 0,133.8 70.4,251.1 176.6,316.7 0.5,0.4 0.9,1 2.1,1 56.9,30 120.5,45.8 184.3,45.8 h 531.2 c 241.3,0 386.2,-144.7 386.2,-386.2"
         style="fill:#ff7979;fill-opacity:1;fill-rule:nonzero;stroke:none"
         transform="matrix(0.13333333,0,0,-0.13333333,0,5333.3333)" />
      <path
         id="path16"
         d="m 26311.1,21283.9 7.3,-5.3 c -735.3,-987.5 -1911.7,-1626.3 -3237,-1626.3 767.8,0 1437.7,809.3 1797.1,2013.4 477.5,-90.2 954.9,-217.2 1432.6,-381.8"
         style="fill:#86dcfd;fill-opacity:1;fill-rule:nonzero;stroke:none"
         transform="matrix(0.13333333,0,0,-0.13333333,0,5333.3333)" />
      <path
         id="path17"
         d="m 23081.4,20948.4 v -1296.1 c -766.6,0 -1436.4,808.9 -1795.7,2012.5 390.5,74.4 781.3,124.6 1171.9,149.7 -28.4,-69.1 -43.6,-143.9 -43.6,-221.2 0,-181.5 83.6,-349.6 221.2,-465.4 115.9,-111.5 273.2,-179.5 446.2,-179.5"
         style="fill:#86dcfd;fill-opacity:1;fill-rule:nonzero;stroke:none"
         transform="matrix(0.13333333,0,0,-0.13333333,0,5333.3333)" />
      <path
         id="path18"
         d="m 24878.5,21665.7 c -359.4,-1204.1 -1029.3,-2013.4 -1797.1,-2013.4 v 1296.1 c 356.5,0 645.6,287.5 645.6,644 0,79.2 -14.1,154.9 -40,224.9 397.1,-25.6 794.1,-75.7 1191.5,-151.6"
         style="fill:#6fbfd8;fill-opacity:1;fill-rule:nonzero;stroke:none"
         transform="matrix(0.13333333,0,0,-0.13333333,0,5333.3333)" />
      <path
         id="path19"
         d="m 21285.7,21664.8 c 359.3,-1203.6 1029.1,-2012.5 1795.7,-2012.5 -1325.3,0 -2501.6,638.8 -3237.8,1625.7 l 8.1,5.9 c 478.1,163.1 956.1,290 1434,380.9"
         style="fill:#6fbfd8;fill-opacity:1;fill-rule:nonzero;stroke:none"
         transform="matrix(0.13333333,0,0,-0.13333333,0,5333.3333)" />
      <path
         id="path20"
         d="m 25157.5,23689.8 h 1959.4 c 0,-903.9 -297,-1738.3 -798.5,-2411.2 l -7.3,5.3 c -477.7,164.6 -955.1,291.6 -1432.6,381.8 177.8,595 279,1286.4 279,2024.1"
         style="fill:#6fbfd8;fill-opacity:1;fill-rule:nonzero;stroke:none"
         transform="matrix(0.13333333,0,0,-0.13333333,0,5333.3333)" />
      <path
         id="path21"
         d="m 23081.4,22752 v -513.6 c -169.4,0 -323.9,-65.7 -439,-173.8 -82.5,-67.5 -146.1,-153.6 -184.8,-250.1 -390.6,-25.1 -781.4,-75.3 -1171.9,-149.7 -177.2,595.2 -279,1286.8 -279,2025 H 22414 v -551.4 c 0,-193.2 193.2,-386.4 386.4,-386.4 h 281"
         style="fill:#6fbfd8;fill-opacity:1;fill-rule:nonzero;stroke:none"
         transform="matrix(0.13333333,0,0,-0.13333333,0,5333.3333)" />
      <path
         id="path22"
         d="m 23727,23689.8 h 1430.5 c 0,-737.7 -101.2,-1429.1 -279,-2024.1 -397.4,75.9 -794.4,126 -1191.5,151.6 h -0.7 c -91.1,245.8 -327.6,421.1 -604.9,421.1 v 513.6 h 250.2 c 37.6,0 72.8,4.9 105.6,13.7 0.7,0 1.1,0 1.6,0.4 164.1,37.7 288.2,185.5 288.2,362.2 v 561.5"
         style="fill:#86dcfd;fill-opacity:1;fill-rule:nonzero;stroke:none"
         transform="matrix(0.13333333,0,0,-0.13333333,0,5333.3333)" />
      <path
         id="path23"
         d="m 21285.7,21664.8 c -477.9,-90.9 -955.9,-217.8 -1434,-380.9 l -8.1,-5.9 c -501.3,673.1 -798.1,1507.5 -798.1,2411.8 h 1961.2 c 0,-738.2 101.8,-1429.8 279,-2025"
         style="fill:#86dcfd;fill-opacity:1;fill-rule:nonzero;stroke:none"
         transform="matrix(0.13333333,0,0,-0.13333333,0,5333.3333)" />
      <path
         id="path24"
         d="m 27116.9,23689.8 h -1959.4 c 0,742.7 -103.2,1438.9 -283.2,2036.5 478.8,90.4 957.4,217.8 1435.7,382.4 507,-674 806.9,-1511.6 806.9,-2418.9"
         style="fill:#86dcfd;fill-opacity:1;fill-rule:nonzero;stroke:none"
         transform="matrix(0.13333333,0,0,-0.13333333,0,5333.3333)" />
      <path
         id="path25"
         d="m 22414,25581.9 v -1892.1 h -1407.3 c 0,743.5 103.4,1439.7 283.8,2038 374.7,-71 749.5,-119.6 1123.5,-145.9"
         style="fill:#86dcfd;fill-opacity:1;fill-rule:nonzero;stroke:none"
         transform="matrix(0.13333333,0,0,-0.13333333,0,5333.3333)" />
      <path
         id="path26"
         d="M 25157.5,23689.8 H 23727 v 1888.9 c 382.4,25.5 764.8,74.8 1147.3,147.6 180,-597.6 283.2,-1293.8 283.2,-2036.5"
         style="fill:#6fbfd8;fill-opacity:1;fill-rule:nonzero;stroke:none"
         transform="matrix(0.13333333,0,0,-0.13333333,0,5333.3333)" />
      <path
         id="path27"
         d="m 19851.7,26109.2 c 480.1,-163.1 959.4,-290.7 1438.8,-381.4 -180.4,-598.3 -283.8,-1294.5 -283.8,-2038 h -1961.2 c 0,907.7 299.9,1745.4 806.2,2419.4"
         style="fill:#6fbfd8;fill-opacity:1;fill-rule:nonzero;stroke:none"
         transform="matrix(0.13333333,0,0,-0.13333333,0,5333.3333)" />
      <path
         id="path28"
         d="m 23081.4,27723.8 c 1320.5,0 2493.3,-634.3 3228.6,-1615.1 -478.3,-164.6 -956.9,-292 -1435.7,-382.4 -360.9,1195 -1028.5,1997.5 -1792.9,1997.5"
         style="fill:#6fbfd8;fill-opacity:1;fill-rule:nonzero;stroke:none"
         transform="matrix(0.13333333,0,0,-0.13333333,0,5333.3333)" />
      <path
         id="path29"
         d="m 23081.4,27723.8 c 764.4,0 1432,-802.5 1792.9,-1997.5 -382.5,-72.8 -764.9,-122.1 -1147.3,-147.6 v 479.4 c 0,205.1 -168.1,371.7 -371.4,371.7 h -274.2 v 1294"
         style="fill:#86dcfd;fill-opacity:1;fill-rule:nonzero;stroke:none"
         transform="matrix(0.13333333,0,0,-0.13333333,0,5333.3333)" />
      <path
         id="path30"
         d="m 21290.5,25727.8 c 360.2,1194 1027.2,1996 1790.9,1996 v -1294 h -272.8 c -70.4,0 -136.7,-19.8 -192.5,-54 -1.2,0 -1.6,-0.6 -2.1,-1 -114.3,-60.8 -200,-178.7 -200,-339.4 v -453.5 c -374,26.3 -748.8,74.9 -1123.5,145.9"
         style="fill:#6fbfd8;fill-opacity:1;fill-rule:nonzero;stroke:none"
         transform="matrix(0.13333333,0,0,-0.13333333,0,5333.3333)" />
      <path
         id="path31"
         d="m 23081.4,27723.8 c -763.7,0 -1430.7,-802 -1790.9,-1996 -479.4,90.7 -958.7,218.3 -1438.8,381.4 736.4,980.3 1909,1614.6 3229.7,1614.6"
         style="fill:#86dcfd;fill-opacity:1;fill-rule:nonzero;stroke:none"
         transform="matrix(0.13333333,0,0,-0.13333333,0,5333.3333)" />
      <path
         id="path32"
         d="M 28835.9,28884.1 V 18454.9 h -17720 v 10429.2 c 7435.6,0 10622.2,0 17720,0 z m -5754.5,-1160.3 c -1320.7,0 -2493.3,-634.3 -3229.7,-1614.6 -506.3,-674 -806.2,-1511.7 -806.2,-2419.4 0,-904.3 296.8,-1738.7 798.1,-2411.8 736.2,-986.9 1912.5,-1625.7 3237.8,-1625.7 1325.3,0 2501.7,638.8 3237,1626.3 501.5,672.9 798.5,1507.3 798.5,2411.2 0,907.3 -299.9,1744.9 -806.9,2418.9 -735.3,980.8 -1908.1,1615.1 -3228.6,1615.1"
         style="fill:#d8f2f1;fill-opacity:1;fill-rule:nonzero;stroke:none"
         transform="matrix(0.13333333,0,0,-0.13333333,0,5333.3333)" />
      <path
         id="path33"
         d="m 26083.6,11453.9 v -869.1 H 13916.4 v 869.1 h 2848.6 6470 2848.6"
         style="fill:#414a56;fill-opacity:1;fill-rule:nonzero;stroke:none"
         transform="matrix(0.13333333,0,0,-0.13333333,0,5333.3333)" />
      <path
         id="path34"
         d="m 20000,16620.2 c 241.4,0 434.6,-193.2 434.6,-434.6 0,-241.4 -193.2,-386.1 -434.6,-386.1 -241.4,0 -434.6,144.7 -434.6,386.1 0,241.4 193.2,434.6 434.6,434.6"
         style="fill:#414a56;fill-opacity:1;fill-rule:nonzero;stroke:none"
         transform="matrix(0.13333333,0,0,-0.13333333,0,5333.3333)" />
      <path
         id="path35"
         d="m 20434.6,16185.6 c 0,241.4 -193.2,434.6 -434.6,434.6 -241.4,0 -434.6,-193.2 -434.6,-434.6 0,-241.4 193.2,-386.1 434.6,-386.1 241.4,0 434.6,144.7 434.6,386.1 z m 8401.3,2269.3 v 10429.2 c -7097.8,0 -10284.4,0 -17720,0 V 18454.9 Z m 1158.7,10477.4 V 16137.5 c 0,-579.4 -531.2,-1110.6 -1110.6,-1110.6 h -6614.7 -4538.6 -1931.2 -4683.6 c -579.4,0 -1110.6,531.2 -1110.6,1110.6 v 12794.8 c 0,579.6 531.2,1110.5 1110.6,1110.5 7676.9,0 10429.2,0 17768.1,0 579.4,0 1110.6,-530.9 1110.6,-1110.5"
         style="fill:#57606f;fill-opacity:1;fill-rule:nonzero;stroke:none"
         transform="matrix(0.13333333,0,0,-0.13333333,0,5333.3333)" />
      <path
         id="path36"
         d="m 28884,14882.1 h -6614.7 c -79.9,0 -144.8,64.7 -144.8,144.8 0,79.8 64.9,144.8 144.8,144.8 H 28884 c 496.5,0 965.8,469.3 965.8,965.8 v 12794.8 c 0,496.4 -469.3,965.7 -965.8,965.7 H 11115.9 c -496.4,0 -965.8,-469.3 -965.8,-965.7 V 16137.5 c 0,-496.5 469.4,-965.8 965.8,-965.8 h 6614.8 c 79.9,0 144.8,-65 144.8,-144.8 0,-80.1 -64.9,-144.8 -144.8,-144.8 h -6614.8 c -657,0 -1255.35,598.3 -1255.35,1255.4 v 12794.8 c 0,657 598.35,1255.5 1255.35,1255.5 H 28884 c 657.1,0 1255.4,-598.5 1255.4,-1255.5 V 16137.5 c 0,-657.1 -598.3,-1255.4 -1255.4,-1255.4"
         style="fill:#000729;fill-opacity:1;fill-rule:nonzero;stroke:none"
         transform="matrix(0.13333333,0,0,-0.13333333,0,5333.3333)" />
      <path
         id="path37"
         d="M 11260.7,18599.9 H 28690.9 V 28739.3 H 11260.7 Z m 17575.2,-289.8 h -17720 c -80.1,0 -144.8,64.9 -144.8,144.8 v 10429.2 c 0,80.1 64.7,144.8 144.8,144.8 h 17720 c 79.9,0 144.8,-64.7 144.8,-144.8 V 18454.9 c 0,-79.9 -64.9,-144.8 -144.8,-144.8"
         style="fill:#000729;fill-opacity:1;fill-rule:nonzero;stroke:none"
         transform="matrix(0.13333333,0,0,-0.13333333,0,5333.3333)" />
      <path
         id="path38"
         d="m 23234.8,11309.1 c -63.8,0 -122.2,42.5 -139.7,106.9 l -936.8,3466.1 H 17841.7 L 16904.9,11416 c -20.9,-77 -100.3,-122.5 -177.8,-101.8 -77,20.6 -122.8,100.3 -101.9,177.5 l 965.6,3573 c 17.2,63.2 74.3,107 139.9,107 h 4538.6 c 65.5,0 122.7,-43.8 139.9,-107 l 965.5,-3573 c 21,-77.2 -24.6,-156.9 -101.8,-177.5 -12.8,-3.6 -25.6,-5.1 -38.1,-5.1"
         style="fill:#000729;fill-opacity:1;fill-rule:nonzero;stroke:none"
         transform="matrix(0.13333333,0,0,-0.13333333,0,5333.3333)" />
      <path
         id="path39"
         d="m 14061.1,10729.7 h 11877.8 v 579.4 H 14061.1 Z m 12022.5,-289.8 H 13916.4 c -80.1,0 -144.8,65 -144.8,144.9 v 869.1 c 0,80.1 64.7,144.8 144.8,144.8 h 12167.2 c 80.1,0 144.8,-64.7 144.8,-144.8 v -869.1 c 0,-79.9 -64.7,-144.9 -144.8,-144.9"
         style="fill:#000729;fill-opacity:1;fill-rule:nonzero;stroke:none"
         transform="matrix(0.13333333,0,0,-0.13333333,0,5333.3333)" />
      <path
         id="path40"
         d="m 20000,16475.4 c -162.5,0 -289.8,-127.4 -289.8,-289.8 0,-178.2 156.2,-241.4 289.8,-241.4 133.5,0 289.7,63.2 289.7,241.4 0,162.4 -127.3,289.8 -289.7,289.8 z m 0,-821 c -335.8,0 -579.3,223.4 -579.3,531.2 0,319.5 259.8,579.4 579.3,579.4 319.5,0 579.3,-259.9 579.3,-579.4 0,-307.8 -243.6,-531.2 -579.3,-531.2"
         style="fill:#000729;fill-opacity:1;fill-rule:nonzero;stroke:none"
         transform="matrix(0.13333333,0,0,-0.13333333,0,5333.3333)" />
      <path
         id="path41"
         d="M 22945.2,9570.8 H 12226.4 c -80.1,0 -144.8,64.9 -144.8,145 0,79.9 64.7,144.8 144.8,144.8 h 10718.8 c 80.1,0 144.8,-64.9 144.8,-144.8 0,-80.1 -64.7,-145 -144.8,-145"
         style="fill:#000729;fill-opacity:1;fill-rule:nonzero;stroke:none"
         transform="matrix(0.13333333,0,0,-0.13333333,0,5333.3333)" />
      <path
         id="path42"
         d="m 25938.9,8750 h -7435.6 c -80.1,0 -145,64.9 -145,144.8 0,80.1 64.9,145 145,145 h 7435.6 c 80,0 144.7,-64.9 144.7,-145 0,-79.9 -64.7,-144.8 -144.7,-144.8"
         style="fill:#000729;fill-opacity:1;fill-rule:nonzero;stroke:none"
         transform="matrix(0.13333333,0,0,-0.13333333,0,5333.3333)" />
      <path
         id="path43"
         d="m 15316.4,8798.2 h -3524.5 c -80.2,0 -144.8,64.9 -144.8,145 0,79.9 64.6,144.8 144.8,144.8 h 3524.5 c 80.1,0 145.1,-64.9 145.1,-144.8 0,-80.1 -65,-145 -145.1,-145"
         style="fill:#000729;fill-opacity:1;fill-rule:nonzero;stroke:none"
         transform="matrix(0.13333333,0,0,-0.13333333,0,5333.3333)" />
      <path
         id="path44"
         d="m 14833.7,27387.4 h -2607.3 c -80.1,0 -144.8,64.7 -144.8,144.8 0,80.1 64.7,144.7 144.8,144.7 h 2607.3 c 80.1,0 144.7,-64.6 144.7,-144.7 0,-80.1 -64.6,-144.8 -144.7,-144.8"
         style="fill:#000729;fill-opacity:1;fill-rule:nonzero;stroke:none"
         transform="matrix(0.13333333,0,0,-0.13333333,0,5333.3333)" />
      <path
         id="path45"
         d="m 17489.3,26373.4 h -5262.9 c -80.1,0 -144.8,64.7 -144.8,144.8 0,80.1 64.7,144.8 144.8,144.8 h 5262.9 c 79.9,0 144.8,-64.7 144.8,-144.8 0,-80.1 -64.9,-144.8 -144.8,-144.8"
         style="fill:#000729;fill-opacity:1;fill-rule:nonzero;stroke:none"
         transform="matrix(0.13333333,0,0,-0.13333333,0,5333.3333)" />
      <path
         id="path46"
         d="m 17489.3,25407.7 h -5262.9 c -80.1,0 -144.8,64.9 -144.8,144.7 0,80.1 64.7,145.1 144.8,145.1 h 5262.9 c 79.9,0 144.8,-65 144.8,-145.1 0,-79.8 -64.9,-144.7 -144.8,-144.7"
         style="fill:#000729;fill-opacity:1;fill-rule:nonzero;stroke:none"
         transform="matrix(0.13333333,0,0,-0.13333333,0,5333.3333)" />
      <path
         id="path47"
         d="m 8894.8,24248.9 c -79.88,0 -144.75,64.7 -144.75,144.8 v 5456.2 c 0,785 615.01,1400 1400.05,1400 h 3138.4 c 80.1,0 145,-64.8 145,-144.8 0,-80 -64.9,-144.9 -145,-144.9 h -3138.4 c -622.66,0 -1110.28,-487.6 -1110.28,-1110.3 v -5456.2 c 0,-80.1 -64.94,-144.8 -145.02,-144.8"
         style="fill:#000729;fill-opacity:1;fill-rule:nonzero;stroke:none"
         transform="matrix(0.13333333,0,0,-0.13333333,0,5333.3333)" />
      <path
         id="path48"
         d="m 31105.2,27387.4 c -80.2,0 -145,64.7 -145,144.8 v 2317.7 c 0,622.7 -487.7,1110.3 -1110.4,1110.3 -80.1,0 -145,64.9 -145,144.9 0,80 64.9,144.8 145,144.8 785.2,0 1400.2,-615 1400.2,-1400 v -2317.7 c 0,-80.1 -65,-144.8 -144.8,-144.8"
         style="fill:#000729;fill-opacity:1;fill-rule:nonzero;stroke:none"
         transform="matrix(0.13333333,0,0,-0.13333333,0,5333.3333)" />
      <path
         id="path49"
         d="m 23081.4,27579.1 c -1235.7,0 -2370.7,-567.6 -3113.8,-1556.8 -508.5,-676.6 -777.4,-1483.3 -777.4,-2332.5 0,-845.1 266.3,-1649.2 769.5,-2325.3 743.1,-995.9 1881.1,-1567.4 3121.7,-1567.4 1241.3,0 2378.6,571.7 3120.8,1568 503.7,675.8 770,1479.6 770,2324.7 0,849.2 -269.1,1655.4 -777.9,2331.8 -742.2,989.7 -1876.7,1557.5 -3112.9,1557.5 z m 0,-8071.6 c -1333,0 -2555.5,613.7 -3354,1684 -540.9,726.4 -826.7,1590.2 -826.7,2498.3 0,912.5 288.7,1779.3 835.2,2506.5 798.3,1062.8 2017.8,1672.3 3345.5,1672.3 1328.2,0 2547.4,-609.7 3344.6,-1672.9 546.9,-726.9 835.7,-1593.6 835.7,-2505.9 0,-907.9 -286,-1771.7 -827.3,-2497.9 -797.2,-1070.5 -2019.4,-1684.4 -3353,-1684.4"
         style="fill:#000729;fill-opacity:1;fill-rule:nonzero;stroke:none"
         transform="matrix(0.13333333,0,0,-0.13333333,0,5333.3333)" />
      <path
         id="path50"
         d="M 27116.9,23544.8 H 23727 c -80.1,0 -144.8,65 -144.8,145 0,79.9 64.7,144.8 144.8,144.8 h 3389.9 c 80.1,0 144.8,-64.9 144.8,-144.8 0,-80 -64.7,-145 -144.8,-145"
         style="fill:#000729;fill-opacity:1;fill-rule:nonzero;stroke:none"
         transform="matrix(0.13333333,0,0,-0.13333333,0,5333.3333)" />
      <path
         id="path51"
         d="m 22437.4,23544.8 h -3391.9 c -80.1,0 -144.8,65 -144.8,145 0,79.9 64.7,144.8 144.8,144.8 h 3391.9 c 80,0 144.8,-64.9 144.8,-144.8 0,-80 -64.8,-145 -144.8,-145"
         style="fill:#000729;fill-opacity:1;fill-rule:nonzero;stroke:none"
         transform="matrix(0.13333333,0,0,-0.13333333,0,5333.3333)" />
      <path
         id="path52"
         d="m 23081.4,19507.5 c -79.8,0 -144.8,64.7 -144.8,144.8 v 1296.1 c 0,79.9 65,144.8 144.8,144.8 80.1,0 144.8,-64.9 144.8,-144.8 v -1296.1 c 0,-80.1 -64.7,-144.8 -144.8,-144.8"
         style="fill:#000729;fill-opacity:1;fill-rule:nonzero;stroke:none"
         transform="matrix(0.13333333,0,0,-0.13333333,0,5333.3333)" />
      <path
         id="path53"
         d="m 23081.4,22093.7 c -79.8,0 -144.8,64.6 -144.8,144.7 v 513.6 c 0,80.1 65,147.2 144.8,147.2 80.1,0 144.8,-62.7 144.8,-142.8 v -518 c 0,-80.1 -64.7,-144.7 -144.8,-144.7"
         style="fill:#000729;fill-opacity:1;fill-rule:nonzero;stroke:none"
         transform="matrix(0.13333333,0,0,-0.13333333,0,5333.3333)" />
      <path
         id="path54"
         d="m 23081.4,26285 c -79.8,0 -144.8,64.9 -144.8,144.8 v 1294 c 0,80.1 65,145.7 144.8,145.7 80.1,0 144.8,-64.3 144.8,-144.2 v -1295.5 c 0,-79.9 -64.7,-144.8 -144.8,-144.8"
         style="fill:#000729;fill-opacity:1;fill-rule:nonzero;stroke:none"
         transform="matrix(0.13333333,0,0,-0.13333333,0,5333.3333)" />
      <path
         id="path55"
         d="m 23726.8,25433.8 c -75.5,0 -139.1,58.6 -144.3,135.2 -5.4,79.9 55,148.7 134.8,154.2 375,25.1 755,74 1129.7,145.5 468.3,88.2 942.9,214.5 1411.3,375.3 16.8,6.6 34.6,10.2 52.8,10.2 80,0 144.8,-64.9 144.8,-145 0,-56.4 -32.1,-105 -79.2,-129 -6.1,-3.3 -12.7,-6.1 -19.5,-8.3 -483.3,-166.4 -973.1,-296.9 -1456.3,-388 -385.7,-73.5 -777.6,-123.8 -1164.2,-149.8 -3.3,-0.3 -6.6,-0.3 -9.9,-0.3"
         style="fill:#000729;fill-opacity:1;fill-rule:nonzero;stroke:none"
         transform="matrix(0.13333333,0,0,-0.13333333,0,5333.3333)" />
      <path
         id="path56"
         d="m 22437.6,25435.2 c -3.1,0 -6,0.2 -9,0.2 -9.3,0.6 -18.7,1.3 -28,2.4 -376,26.2 -758.5,75.9 -1137,147.6 -481.2,91.2 -971.9,221.2 -1458.6,386.7 -75.7,25.8 -116.1,108 -90.4,183.7 25.7,75.7 107.8,116.4 183.7,90.6 474,-161 951.3,-287.7 1419.3,-376.2 368.5,-70 740.8,-118.1 1106.6,-143.7 2.9,-0.2 5.7,-0.4 8.3,-0.9 4.7,-0.4 9.2,-0.6 13.6,-1 79.9,-4.9 140.7,-73.5 135.8,-153.4 -4.6,-76.8 -68.4,-136 -144.3,-136"
         style="fill:#000729;fill-opacity:1;fill-rule:nonzero;stroke:none"
         transform="matrix(0.13333333,0,0,-0.13333333,0,5333.3333)" />
      <path
         id="path57"
         d="m 26311.1,21138.9 c -15.6,0 -31.6,2.7 -47.3,7.9 -466.4,160.9 -941.7,287.6 -1412.1,376.5 -387.8,74.2 -782.6,124.4 -1174.2,149.5 -79.6,5.2 -140.4,74.1 -135.1,153.8 5.1,79.8 73.9,139.9 153.8,135.3 403.3,-26 810.4,-77.7 1209.6,-153.8 484,-91.5 972.7,-221.9 1452.5,-387.3 75.6,-26.2 115.7,-108.5 89.7,-184.2 -20.7,-60 -76.8,-97.7 -136.9,-97.7"
         style="fill:#000729;fill-opacity:1;fill-rule:nonzero;stroke:none"
         transform="matrix(0.13333333,0,0,-0.13333333,0,5333.3333)" />
      <path
         id="path58"
         d="m 19851.7,21138.9 c -60.3,0 -116.4,37.9 -137.1,98.2 -25.7,75.6 14.7,157.9 90.4,183.9 482.1,164.6 971.1,294.4 1453.8,386.2 397.2,75.5 797.5,126.7 1189.5,151.8 l 15.7,1.3 c 80.5,6.2 149.8,-52.8 156.5,-132.4 6.3,-79.7 -52.9,-149.6 -132.6,-156.3 l -19.5,-1.5 c -381.8,-24.6 -769.9,-74.2 -1155.7,-147.6 -469,-89.2 -945,-215.5 -1414.2,-375.7 -15.3,-5.2 -31.2,-7.9 -46.8,-7.9"
         style="fill:#000729;fill-opacity:1;fill-rule:nonzero;stroke:none"
         transform="matrix(0.13333333,0,0,-0.13333333,0,5333.3333)" />
      <path
         id="path59"
         d="m 23081.4,22093.7 c -126.8,0 -247.6,-48 -339.5,-134.7 -101.7,-94.6 -159.7,-227.9 -159.7,-366.6 0,-137.5 54.3,-265.3 153.3,-359.7 93.5,-90.3 216.3,-139.5 345.9,-139.5 276.2,0 500.8,223.9 500.8,499.2 0,57 -9.3,112.4 -27.5,164.8 -1.5,3.1 -2.8,6.4 -4.2,9.7 -72.4,195.4 -260.9,326.8 -469.1,326.8 z m 0,-1290.3 c -205.1,0 -399.2,78.1 -546.6,220.2 -156.2,149.2 -242.2,351.4 -242.2,568.8 0,218.7 91.5,429.5 251.3,578.3 145.4,136.9 336.6,212.6 537.5,212.6 324.4,0 618.6,-201.8 736.3,-503.5 1.7,-4 3.5,-7.7 5.1,-11.9 32.5,-87.6 49,-180.2 49,-275.5 0,-435 -354.5,-789 -790.4,-789"
         style="fill:#000729;fill-opacity:1;fill-rule:nonzero;stroke:none"
         transform="matrix(0.13333333,0,0,-0.13333333,0,5333.3333)" />
      <path
         id="path60"
         d="m 23355.6,22611.7 h -547 c -284.6,0 -516,231.7 -516,516.6 v 2929.8 c 0,180.4 91.8,344.8 245.3,439.9 68,42 157.4,21.1 199.4,-46.9 42,-68.2 20.9,-157.3 -47.2,-199.6 -67.4,-41.8 -107.9,-114.1 -107.9,-193.4 v -2929.8 c 0,-125.2 101.6,-227.1 226.4,-227.1 h 547 c 16,0 32.8,2 50.8,5.9 78.3,17.4 155.4,-32.3 172.3,-110.6 17.1,-78.1 -32.3,-155.3 -110.4,-172.3 -38.8,-8.4 -75.5,-12.5 -112.7,-12.5"
         style="fill:#000729;fill-opacity:1;fill-rule:nonzero;stroke:none"
         transform="matrix(0.13333333,0,0,-0.13333333,0,5333.3333)" />
      <path
         id="path61"
         d="m 23438.5,22621.3 c -66,0 -125.6,45.4 -141,112.4 -17.8,78 30.8,155.6 108.7,173.7 102.1,23.3 176,116.1 176,220.9 v 2929.8 c 0,125 -101.6,226.9 -226.6,226.9 h -547 c -41.4,0 -81.9,-11.2 -117.1,-32.9 -68.2,-41.7 -157.4,-20.2 -199.2,48 -41.8,68.3 -20.2,157.4 48.1,199.2 80.5,49.3 173.3,75.5 268.2,75.5 h 547 c 284.7,0 516.2,-231.9 516.2,-516.7 v -2929.8 c 0,-238.3 -168.5,-450 -400.7,-503.3 -10.8,-2.6 -21.8,-3.7 -32.6,-3.7"
         style="fill:#000729;fill-opacity:1;fill-rule:nonzero;stroke:none"
         transform="matrix(0.13333333,0,0,-0.13333333,0,5333.3333)" />
      <path
         id="path62"
         d="m 23081.4,27579.1 c -666.7,0 -1300,-725.5 -1652,-1893.1 -181.8,-602 -277.9,-1292.3 -277.9,-1996.2 0,-697.5 94.3,-1383.6 273,-1983.6 351.4,-1177.4 986.4,-1909.1 1656.9,-1909.1 671.3,0 1306.8,731.9 1658.2,1910 178.7,598.3 273.1,1283.7 273.1,1982.7 0,702.8 -95.8,1392.7 -277.3,1994.7 -352.7,1168.6 -986.4,1894.6 -1654,1894.6 z m 0,-8071.6 c -815.9,0 -1538.9,791.1 -1934.6,2115.9 -186.3,626.7 -284.9,1341.2 -284.9,2066.4 0,731.9 100.4,1451.2 290,2079.8 396.5,1314.3 1117.8,2099 1929.5,2099 812.4,0 1534.5,-785.1 1931.5,-2100.5 189.5,-628.8 289.6,-1347.5 289.6,-2078.3 0,-726.8 -98.6,-1441 -285.2,-2065.5 -395.4,-1325.5 -1119.1,-2116.8 -1935.9,-2116.8"
         style="fill:#000729;fill-opacity:1;fill-rule:nonzero;stroke:none"
         transform="matrix(0.13333333,0,0,-0.13333333,0,5333.3333)" />
      <path
         id="path63"
         d="m 22680,26245.8 c -46.2,-25.1 -121,-85.2 -121,-210.4 v -2897 c 0,-112.9 128.5,-241.4 241.4,-241.4 h 531.2 c 22.7,0 44.7,2.7 65.6,7.9 1.3,0.3 2.6,0.7 4.2,1.2 117.9,31.4 171.5,142.5 171.5,232.3 v 2897 c 0,162.5 -79,241.5 -241.3,241.5 h -531.2 c -40.2,0 -80.8,-10.2 -117.1,-29.3 -1.1,-0.7 -2.1,-1.2 -3.3,-1.8 z m 651.6,-3638.5 h -531.2 c -273.1,0 -531.1,258 -531.1,531.1 v 2897 c 0,200.5 103.4,375.2 276.8,467.2 1.8,1.1 3.5,2 5.3,2.9 77.2,39.8 163,60.9 249,60.9 h 531.2 c 322.6,0 530.9,-208.4 530.9,-531 v -2897 c 0,-239.4 -157.3,-449.1 -382.8,-511.2 -1.8,-0.6 -3.5,-1 -5.3,-1.5 v 0 c -45.7,-12.3 -94,-18.4 -142.8,-18.4"
         style="fill:#000729;fill-opacity:1;fill-rule:nonzero;stroke:none"
         transform="matrix(0.13333333,0,0,-0.13333333,0,5333.3333)" />
      <path
         id="path64"
         d="m 23090,22076.1 c -132.9,0 -259,-43.6 -355.1,-123 -64.3,-52.6 -113.4,-119.1 -142.9,-192.4 -22.2,-53.6 -33,-109.5 -33,-167.4 0,-134.7 61.9,-263.9 169.7,-354.5 97.5,-82.9 225.7,-128.3 361.3,-128.3 257.5,0 482.9,225.6 482.9,482.8 0,257.2 -225.4,482.8 -482.9,482.8 z m 0,-1255.3 c -204.2,0 -399.2,69.9 -548.5,196.7 -172.8,145.6 -272.2,355.5 -272.2,575.8 0,96 18.4,189 54.5,276.6 46.9,117.1 125.7,223.8 227.1,306.7 147.2,121.9 339.1,189.3 539.1,189.3 419,0 772.5,-353.9 772.5,-772.6 0,-418.7 -353.5,-772.5 -772.5,-772.5"
         style="fill:#000729;fill-opacity:1;fill-rule:nonzero;stroke:none"
         transform="matrix(0.13333333,0,0,-0.13333333,0,5333.3333)" />
      <path
         id="path65"
         d="m 15751,21641.7 h -3524.6 c -80.1,0 -144.8,64.7 -144.8,144.8 0,80.1 64.7,144.7 144.8,144.7 H 15751 c 80.1,0 145,-64.6 145,-144.7 0,-80.1 -64.9,-144.8 -145,-144.8"
         style="fill:#000729;fill-opacity:1;fill-rule:nonzero;stroke:none"
         transform="matrix(0.13333333,0,0,-0.13333333,0,5333.3333)" />
      <path
         id="path66"
         d="m 19324,20676 h -7097.6 c -80.1,0 -144.8,64.9 -144.8,144.8 0,80 64.7,144.9 144.8,144.9 H 19324 c 80.1,0 144.8,-64.9 144.8,-144.9 0,-79.9 -64.7,-144.8 -144.8,-144.8"
         style="fill:#000729;fill-opacity:1;fill-rule:nonzero;stroke:none"
         transform="matrix(0.13333333,0,0,-0.13333333,0,5333.3333)" />
      <path
         id="path67"
         d="m 19324,19662 h -7097.6 c -80.1,0 -144.8,64.9 -144.8,144.8 0,80.1 64.7,145 144.8,145 H 19324 c 80.1,0 144.8,-64.9 144.8,-145 0,-79.9 -64.7,-144.8 -144.8,-144.8"
         style="fill:#000729;fill-opacity:1;fill-rule:nonzero;stroke:none"
         transform="matrix(0.13333333,0,0,-0.13333333,0,5333.3333)" />
    </g>
  </g>
</svg>
